<svg width="670" height="528" viewBox="0 0 670 528" fill="none" xmlns="http://www.w3.org/2000/svg">
<g clip-path="url(#clip0_2_99)">
<path d="M185.496 516.36L197.461 515.002L197.918 468.266L180.259 470.269L185.496 516.36Z" fill="#FFB8B8"/>
<path d="M221.796 523.484L184.193 527.746L182.545 513.235L205.619 510.62C209.472 510.184 213.341 511.293 216.375 513.706C219.409 516.118 221.359 519.635 221.796 523.484Z" fill="#2F2E41"/>
<path d="M62.4489 515.612H74.4904L80.2185 469.224L62.447 469.226L62.4489 515.612Z" fill="#FFB8B8"/>
<path d="M97.7134 526.778L59.8693 526.78L59.8686 512.177L83.0911 512.176C86.969 512.176 90.6881 513.714 93.4303 516.452C96.1725 519.191 97.7132 522.905 97.7134 526.778Z" fill="#2F2E41"/>
<path d="M148.843 308.172L155.718 330.508L193.041 411.173L202.863 487.687L180.273 488.668L166.522 418.039L119.378 367.03L78.126 500.439L59.4646 498.477C59.4646 498.477 75.1795 325.829 96.7874 308.172C96.7874 308.172 132.146 291.496 148.843 308.172Z" fill="#2F2E41"/>
<path d="M118.345 211.797C131.668 211.797 142.468 201.01 142.468 187.704C142.468 174.398 131.668 163.611 118.345 163.611C105.022 163.611 94.2218 174.398 94.2218 187.704C94.2218 201.01 105.022 211.797 118.345 211.797Z" fill="#FFB8B8"/>
<path d="M151.298 312.587C151.298 312.587 154.245 212.529 112.993 219.396C71.7419 226.263 88.93 322.887 88.93 322.887C88.93 322.887 97.7696 340.544 119.378 320.925C140.985 301.306 151.298 312.587 151.298 312.587Z" fill="#CCCCCC"/>
<path opacity="0.2" d="M94.3324 261.577L104.039 298.739L118.828 313.51L98.2611 306.701L94.3324 261.577Z" fill="black"/>
<path d="M151.603 354.903C150.246 354.412 149.013 353.629 147.991 352.61C146.969 351.591 146.184 350.361 145.69 349.006C145.195 347.651 145.005 346.204 145.131 344.767C145.257 343.331 145.697 341.939 146.42 340.691L123.478 314.163L141.564 311.811L160.578 337.364C162.597 338.716 164.049 340.76 164.66 343.11C165.271 345.46 164.997 347.953 163.891 350.115C162.784 352.277 160.923 353.958 158.658 354.841C156.393 355.723 153.883 355.746 151.603 354.903Z" fill="#FFB8B8"/>
<path d="M123.67 239.776L126.253 290.515L156.7 329.753L143.932 339.563L102.68 298.363C102.68 298.363 87.9478 248.334 98.7517 233.62C102.803 228.102 107.269 226.584 111.269 226.843C114.56 227.117 117.637 228.583 119.921 230.965C122.205 233.347 123.538 236.48 123.67 239.776Z" fill="#CCCCCC"/>
<path d="M115.476 213.02C115.591 212.917 115.681 212.788 115.738 212.644C115.794 212.501 115.817 212.346 115.803 212.192C115.79 212.038 115.74 211.889 115.659 211.758C115.578 211.626 115.467 211.515 115.335 211.434C113.193 210.109 111.448 208.232 110.283 206.001C109.118 203.769 108.576 201.266 108.714 198.753C108.852 196.24 109.666 193.811 111.069 191.721C112.472 189.63 114.412 187.956 116.687 186.873C123.779 183.496 133.39 186.124 138.633 179.634C139.699 178.245 140.453 176.643 140.843 174.937C141.234 173.231 141.251 171.462 140.895 169.748C139.763 163.619 135.149 159.066 129.982 155.947C123.635 152.114 116.34 150.134 108.923 150.23C101.507 150.327 94.2655 152.496 88.0201 156.492C81.7746 160.488 76.7746 166.151 73.5865 172.839C70.3984 179.528 69.1497 186.975 69.9818 194.336C70.6488 200.235 72.4715 206.851 68.9591 211.64C65.8679 215.856 60.0329 216.646 54.9073 217.694C43.9137 219.941 33.3076 225.124 25.8471 233.495C18.3866 241.867 14.4066 253.613 16.656 264.593C18.9053 275.573 27.9294 285.223 39.0208 286.924C48.0486 288.31 57.3705 284.481 64.0001 278.205C70.6296 271.93 74.8201 263.456 77.4633 254.724C80.6005 244.36 81.838 233.192 87.502 223.96C93.0445 214.926 104.989 208.449 114.35 213.154C114.529 213.248 114.733 213.285 114.934 213.261C115.135 213.237 115.324 213.153 115.476 213.02Z" fill="#2F2E41"/>
<path d="M607.114 194.013C607.059 221.8 596.599 248.561 577.79 269.036C558.981 289.51 533.184 302.217 505.47 304.659C477.756 307.1 450.131 299.098 428.024 282.228C405.917 265.357 390.929 240.837 386.006 213.489C381.083 186.141 386.581 157.942 401.419 134.437C416.257 110.932 439.362 93.8213 466.192 86.468C493.021 79.1146 521.634 82.051 546.406 94.6999C571.178 107.349 590.316 128.795 600.059 154.822C600.302 155.476 600.539 156.13 600.769 156.789V156.796C601.798 159.696 602.703 162.651 603.486 165.66C605.903 174.917 607.122 184.446 607.114 194.013Z" fill="#3F3D56"/>
<path d="M482.656 118.418C477.614 115.695 472.017 114.158 466.29 113.924C460.563 113.69 454.859 114.765 449.611 117.068C444.991 119.076 440.126 122.679 438.585 129.184C444.818 125.51 452.888 131.315 454.492 140.628L454.117 140.731C453.27 147.182 455.161 154.205 458.823 158.204C459.095 156.399 459.767 154.678 460.788 153.165C461.81 151.651 463.156 150.384 464.729 149.456C467.42 147.689 470.396 146.406 472.449 143.37C474.884 139.771 475.502 134.511 476.469 129.712C477.436 124.913 479.27 119.755 482.656 118.418Z" fill="#6C63FF"/>
<path d="M447.762 173.31C446.036 175.899 443.73 177.524 441.661 179.547C439.272 181.717 437.705 184.643 437.223 187.832C436.961 190.085 437.366 192.376 437.31 194.654C437.254 196.932 436.494 199.497 434.942 200.063C432.493 200.947 430.623 196.403 428.105 196.086C426.104 195.837 424.303 198.98 424.883 201.707C425.462 204.433 428.186 205.641 429.75 203.861C431.165 206.232 430.168 210.533 428.043 211.262C427.818 212.756 427.594 214.243 427.376 215.737C422.003 211.984 416.575 208.168 412.007 202.672C406.926 196.61 403.774 189.171 402.957 181.309C402.365 174.99 403.244 167.764 400.34 162.902C398.015 159.012 394.026 158.153 390.436 158.395C389.782 158.439 389.121 158.514 388.467 158.595C390.584 152.244 393.273 146.098 396.5 140.232C397.231 139.919 397.909 139.497 398.513 138.981C401.854 136.148 403.337 130.415 406.048 126.45C406.223 126.195 406.404 125.946 406.59 125.703C409.364 122.087 413.078 120.226 416.668 118.495C424.615 114.642 432.792 110.739 441.181 111.274L438.794 111.505C436.008 119.298 433.22 127.091 430.43 134.885C430.006 136.08 429.578 137.277 429.146 138.476C427.563 142.908 425.93 147.627 426.173 152.588C426.316 155.526 427.338 158.663 429.283 159.671C431.096 160.605 433.078 159.46 434.83 158.327C435.571 157.854 436.307 157.381 437.048 156.901C439.71 155.19 442.658 153.434 445.468 154.58C448.042 155.625 449.943 159.117 450.305 162.883C450.636 166.544 449.742 170.211 447.762 173.31Z" fill="#6C63FF"/>
<path d="M463.59 226.517C455.818 221.737 448.045 216.957 440.273 212.178L440.404 211.838C435.572 213.677 433.565 222.256 434.364 229.272C435.163 236.288 437.871 242.56 439.239 249.397C441.084 258.752 440.387 268.43 437.223 277.426C447.443 265.972 456.488 253.524 464.222 240.269C465.302 238.598 466.125 236.775 466.664 234.86C467.234 232.82 467.031 230.641 466.093 228.74C465.457 227.803 464.596 227.039 463.59 226.517Z" fill="#6C63FF"/>
<path d="M432.915 139.561C432.002 141.518 431.861 143.747 432.521 145.803C433.288 147.46 434.679 148.747 436.392 149.383L440.686 151.51C442.115 152.217 443.655 152.931 445.111 152.349C446.868 151.647 448.086 148.897 447.771 146.343C447.436 143.626 445.721 141.757 444.135 140.165C441.915 137.937 439.695 135.71 437.476 133.482L436.225 135.013C434.872 136.331 433.753 137.869 432.915 139.561Z" fill="#6C63FF"/>
<path d="M584.091 168.61C586.023 169.065 587.955 169.519 589.887 169.973C589.551 176.491 586.316 182.522 581.978 184.707C580.171 185.616 578.158 185.952 576.662 187.651C575.31 189.195 574.624 191.598 573.994 193.895C572.891 197.903 571.788 201.912 570.685 205.921C569.501 210.241 567.98 215.04 564.901 216.596C562.259 217.934 559.236 216.297 557.204 213.552C555.173 210.807 553.932 207.116 552.729 203.518C552.804 207.44 550.978 211.287 548.392 212.65C545.799 214.013 542.645 212.78 540.913 209.737C539.666 207.552 539.149 204.67 537.927 202.454C536.706 200.238 534.144 198.968 532.81 201.047C531.932 202.429 532.044 204.545 531.608 206.301C531.388 207.466 530.81 208.534 529.954 209.356C529.099 210.179 528.008 210.714 526.834 210.888C525.754 210.864 524.69 210.62 523.707 210.171C522.725 209.723 521.844 209.079 521.118 208.28C517.302 204.381 514.817 199.376 514.02 193.982C513.479 191.396 513.547 188.719 514.219 186.164C514.986 183.742 516.837 181.875 518.675 182.336C519.884 179.783 517.497 176.397 515.347 176.696C513.191 176.995 511.502 179.304 509.732 181.078C507.968 182.852 505.5 184.141 503.724 182.379C503.763 183.023 503.545 183.657 503.117 184.141C502.689 184.625 502.086 184.919 501.441 184.958C501.377 184.962 501.313 184.964 501.249 184.962C500.068 184.624 498.971 184.043 498.027 183.257C493.957 180.723 488.79 182.404 485.899 187.197C487.706 179.516 490.355 170.702 495.908 168.896C498.177 168.156 500.651 168.766 502.795 167.483C506.591 165.211 507.357 156.628 504.079 153.086C504.496 156.435 504.415 160.344 502.645 162.634C500.875 164.925 497.161 163.431 497.385 160.045C497.335 160.521 497.135 160.969 496.814 161.325C496.493 161.681 496.067 161.926 495.598 162.026C495.129 162.125 494.641 162.074 494.203 161.879C493.765 161.684 493.399 161.356 493.16 160.941C491.982 159.149 492.081 156.217 492.917 154.076C493.778 152.136 495.012 150.385 496.55 148.921C499.51 145.753 502.514 142.547 505.942 140.555C509.377 138.564 513.34 137.891 516.781 139.871C518.594 140.916 520.19 142.659 522.041 143.581C522.476 143.85 522.96 144.032 523.465 144.114C523.97 144.197 524.486 144.18 524.985 144.063C525.483 143.947 525.954 143.733 526.37 143.435C526.785 143.137 527.138 142.76 527.408 142.325C527.429 142.292 527.45 142.258 527.469 142.224C528.847 139.808 528.199 136.223 528.71 133.204C529.626 127.87 534.967 125.373 537.927 128.897C535.715 128.33 533.428 130.945 533.153 134.113C532.873 137.281 534.475 140.481 536.619 141.439C540.221 143.033 543.749 139.024 546.472 135.314C549.314 131.43 552.16 127.548 555.011 123.668C555.466 123.007 555.977 122.387 556.537 121.813C557.43 120.944 558.62 120.446 559.867 120.421C561.113 120.395 562.322 120.844 563.25 121.676C566.129 124.023 567.482 128.834 569.844 132.146C573.272 136.958 578.401 138.128 583.175 139.062C586.734 139.753 590.294 140.448 593.858 141.147C596.233 145.56 598.304 150.129 600.059 154.823C593.525 157.798 587.983 162.583 584.091 168.61Z" fill="#6C63FF"/>
<path d="M595.596 243.506C592.926 248.921 589.82 254.11 586.31 259.024C584.066 258.065 581.654 259.777 579.554 261.383C577.36 263.064 574.724 264.701 572.474 263.169C570.174 261.601 569.432 257.212 570.162 253.733C571 250.523 572.465 247.51 574.474 244.869C576.344 242.08 578.345 239.186 580.944 238.103C583.549 237.019 586.896 238.551 587.656 242.248L589.501 242.186C588.466 240.767 589.009 237.829 590.398 237.312C592 236.708 593.39 238.905 594.337 240.848C594.761 241.725 595.191 242.609 595.596 243.506Z" fill="#6C63FF"/>
<path d="M524.941 217.213C520.976 217.462 517.835 212.587 515.748 207.79C513.661 202.994 511.756 197.509 508.179 195.068C506.134 193.673 503.803 193.481 501.586 192.805C500.328 192.488 499.164 191.876 498.191 191.02C497.217 190.164 496.462 189.088 495.987 187.882L493.472 186.868C489.953 188.624 486.731 190.919 483.922 193.669C480.711 197.075 478.712 201.441 478.231 206.094C477.751 211.122 479.525 216.729 482.84 218.618C485.46 220.111 488.51 219.17 491.164 220.537C494.479 222.244 496.447 227.203 497.192 232.1C497.937 236.996 497.749 242.085 498.282 247.037C498.815 251.989 500.284 257.142 503.324 259.68C507.129 262.856 512.712 260.217 514.419 254.436C515.256 251.6 515.227 248.401 515.853 245.457C516.956 240.273 519.932 236.427 522.293 232.175C524.653 227.923 526.511 222.148 524.941 217.213Z" fill="#6C63FF"/>
<path d="M485.758 166.275C486.128 166.615 486.473 166.981 486.791 167.37C487.12 167.937 487.288 168.582 487.277 169.236C487.265 169.891 487.076 170.53 486.728 171.085C487.205 171.058 487.672 170.932 488.099 170.715C488.525 170.499 488.902 170.196 489.205 169.827C489.929 169.004 490.566 168.108 491.105 167.154C491.359 166.827 491.54 166.451 491.637 166.049C491.733 165.647 491.743 165.229 491.665 164.823C491.478 164.289 491.035 164.061 490.725 163.659C490.294 162.874 490 162.022 489.856 161.138C489.683 160.31 489.283 159.547 488.701 158.933C488.118 158.32 487.375 157.881 486.556 157.666L486.755 157.704C486.417 157.904 486.15 158.206 485.992 158.565C485.833 158.925 485.792 159.325 485.872 159.709C485.993 160.486 486.492 161.131 486.443 161.923C486.371 163.062 485.231 163.597 485.161 164.736C485.15 165.308 485.364 165.861 485.758 166.275Z" fill="#6C63FF"/>
<path d="M478.965 146.917L478.982 146.913C479.104 146.802 479.217 146.682 479.321 146.553L478.965 146.917Z" fill="#6C63FF"/>
<path d="M480.154 152.264C480.63 151.846 480.982 151.306 481.172 150.703C481.362 150.099 481.382 149.454 481.23 148.84C480.942 147.545 479.923 146.674 478.982 146.913C478.709 147.189 478.371 147.392 477.998 147.501C477.625 147.611 477.231 147.624 476.852 147.54C476.27 147.39 475.632 147.005 475.128 147.443C474.839 147.769 474.638 148.163 474.541 148.588C474.354 149.16 474.167 149.732 473.981 150.304C473.892 150.509 473.869 150.736 473.915 150.955C473.95 151.042 474.008 151.119 474.082 151.178C474.156 151.237 474.244 151.276 474.338 151.291L477.697 152.28C478.083 152.457 478.503 152.548 478.927 152.545C479.352 152.542 479.771 152.446 480.154 152.264Z" fill="#6C63FF"/>
<path d="M564.692 226.088C564.174 225.242 563.657 224.395 563.139 223.549C562.631 222.568 561.936 221.697 561.093 220.983C560.724 220.674 560.248 220.525 559.769 220.567C559.29 220.609 558.847 220.84 558.539 221.208L558.511 221.241L558.574 221.724C559.961 223.208 560.905 225.049 561.302 227.039C561.42 227.904 561.379 228.8 561.482 229.668C561.493 230.071 561.584 230.468 561.748 230.836C561.913 231.204 562.148 231.536 562.441 231.813C563.256 232.357 564.214 231.555 564.794 230.576C565.312 229.773 565.545 228.818 565.454 227.866C565.325 227.228 565.065 226.622 564.692 226.088Z" fill="#6C63FF"/>
<path d="M572.812 227.19C572.911 226.397 572.846 225.593 572.623 224.826C572.586 223.789 572.861 222.765 573.413 221.885C573.962 221.056 574.377 220.146 574.645 219.188C574.758 218.752 574.737 218.292 574.586 217.868C574.414 217.483 573.999 217.308 573.761 217.612L574.271 217.94C573.583 217.818 572.876 217.852 572.203 218.04C571.82 218.187 571.477 218.424 571.204 218.731C570.931 219.038 570.737 219.406 570.637 219.804C570.552 220.425 570.415 221.037 570.226 221.635C569.922 222.258 569.333 222.466 568.964 223.013C568.712 223.499 568.585 224.039 568.594 224.586C568.603 225.133 568.748 225.669 569.016 226.145C569.48 226.925 570.218 227.505 571.086 227.772C571.708 227.995 572.528 228.006 572.812 227.19Z" fill="#6C63FF"/>
<path d="M587.273 231.547C587.498 232.132 587.799 232.684 588.169 233.19C588.861 233.886 589.802 233.458 590.642 233.289C591.404 233.169 592.185 233.257 592.901 233.543C593.617 233.83 594.242 234.305 594.71 234.918C594.384 233.296 593.673 231.775 592.637 230.484C591.601 229.193 590.269 228.169 588.755 227.498C586.787 226.818 584.713 226.494 582.631 226.542L582.275 226.633C583.181 229.268 586.027 229.209 587.273 231.547Z" fill="#6C63FF"/>
<path d="M526.026 236.936L526.031 236.948L526.135 236.748L526.026 236.936Z" fill="#6C63FF"/>
<path d="M523.832 241.177C523.354 242.044 522.943 242.947 522.602 243.877C522.15 245.384 521.852 246.931 521.71 248.497C521.598 249.388 521.564 250.525 522.123 250.959C522.283 251.065 522.477 251.11 522.667 251.084C522.858 251.058 523.033 250.964 523.159 250.818C523.469 250.491 523.723 250.114 523.91 249.703C525.008 247.815 525.861 245.794 526.447 243.69C527.059 241.459 526.913 239.087 526.031 236.948C525.299 238.357 524.566 239.767 523.832 241.177Z" fill="#6C63FF"/>
<path d="M502.669 128.189C503.018 128.529 503.458 128.76 503.936 128.853C504.415 128.947 504.91 128.898 505.361 128.714C506.295 128.306 507.151 127.741 507.893 127.043C508.508 126.589 509.029 126.021 509.429 125.37C509.649 124.981 509.79 124.553 509.844 124.109C509.898 123.666 509.863 123.216 509.743 122.786C509.571 122.374 509.297 122.012 508.947 121.735C508.596 121.458 508.181 121.275 507.74 121.203C506.497 120.835 505.254 120.467 504.011 120.099L504.91 119.289C503.985 118.794 502.961 119.714 502.383 120.853C502.012 121.597 501.754 122.392 501.616 123.211C501.419 124.068 501.412 124.956 501.594 125.816C501.775 126.676 502.142 127.485 502.669 128.189Z" fill="#6C63FF"/>
<path d="M524.613 120.831C524.964 121.217 525.448 121.455 525.968 121.497C526.487 121.54 527.004 121.383 527.412 121.059C527.763 120.795 528.055 120.461 528.268 120.077C528.482 119.693 528.612 119.269 528.65 118.832C528.738 117.856 528.254 116.77 527.564 116.686L527.722 115.772C526.392 115.532 524.755 115.484 524.042 117.097C523.802 117.715 523.728 118.385 523.828 119.04C523.929 119.696 524.199 120.313 524.613 120.831Z" fill="#6C63FF"/>
<path d="M434.194 186.599C438.776 186.599 442.491 181.624 442.491 175.487C442.491 169.35 438.776 164.375 434.194 164.375C429.611 164.375 425.897 169.35 425.897 175.487C425.897 181.624 429.611 186.599 434.194 186.599Z" fill="#E6E6E6"/>
<path d="M585.812 324.192C589.773 323.138 592.389 320.053 591.655 317.301C590.921 314.549 587.115 313.172 583.154 314.226C579.193 315.28 576.577 318.365 577.311 321.117C578.045 323.869 581.851 325.246 585.812 324.192Z" fill="#E6E6E6"/>
<path d="M537.298 325.088C541.259 324.034 543.875 320.949 543.141 318.197C542.407 315.445 538.601 314.068 534.64 315.122C530.679 316.175 528.063 319.261 528.797 322.013C529.531 324.765 533.337 326.141 537.298 325.088Z" fill="#E6E6E6"/>
<path d="M594.431 283.877C598.392 282.824 601.008 279.739 600.274 276.987C599.54 274.235 595.734 272.858 591.773 273.911C587.812 274.965 585.196 278.05 585.93 280.802C586.664 283.554 590.47 284.931 594.431 283.877Z" fill="#E6E6E6"/>
<path d="M608.74 266.741C610.529 266.519 611.72 264.258 611.401 261.69C611.083 259.123 609.374 257.221 607.586 257.442C605.797 257.664 604.606 259.925 604.925 262.492C605.243 265.06 606.952 266.962 608.74 266.741Z" fill="#E6E6E6"/>
<path d="M612.363 236.326C614.151 236.104 615.343 233.843 615.024 231.275C614.705 228.708 612.997 226.806 611.208 227.027C609.42 227.249 608.228 229.51 608.547 232.077C608.866 234.645 610.574 236.547 612.363 236.326Z" fill="#E6E6E6"/>
<path d="M563.458 294.794C565.246 294.573 566.438 292.312 566.119 289.744C565.8 287.176 564.092 285.274 562.303 285.496C560.515 285.717 559.323 287.978 559.642 290.546C559.961 293.114 561.669 295.016 563.458 294.794Z" fill="#E6E6E6"/>
<path d="M587.986 303.661C589.774 303.44 590.966 301.179 590.647 298.611C590.328 296.043 588.62 294.141 586.832 294.363C585.043 294.584 583.852 296.845 584.171 299.413C584.489 301.981 586.198 303.883 587.986 303.661Z" fill="#E6E6E6"/>
<path d="M558.204 328.776C559.992 328.555 561.184 326.294 560.865 323.726C560.546 321.158 558.838 319.256 557.05 319.478C555.261 319.699 554.07 321.96 554.389 324.528C554.707 327.096 556.416 328.998 558.204 328.776Z" fill="#E6E6E6"/>
<path d="M344.658 283.5C348.619 282.447 351.235 279.362 350.501 276.61C349.767 273.858 345.962 272.481 342.001 273.534C338.04 274.588 335.423 277.673 336.157 280.425C336.891 283.177 340.697 284.554 344.658 283.5Z" fill="#E6E6E6"/>
<path d="M296.142 284.398C300.103 283.344 302.719 280.259 301.985 277.507C301.251 274.755 297.445 273.378 293.484 274.432C289.523 275.486 286.907 278.571 287.641 281.323C288.375 284.075 292.181 285.452 296.142 284.398Z" fill="#E6E6E6"/>
<path d="M353.279 243.185C357.24 242.131 359.856 239.046 359.122 236.294C358.388 233.542 354.582 232.165 350.621 233.219C346.66 234.272 344.044 237.357 344.778 240.109C345.512 242.861 349.318 244.238 353.279 243.185Z" fill="#E6E6E6"/>
<path d="M367.586 226.049C369.375 225.828 370.566 223.566 370.247 220.999C369.929 218.431 368.22 216.529 366.432 216.75C364.643 216.972 363.452 219.233 363.771 221.801C364.09 224.368 365.798 226.27 367.586 226.049Z" fill="#E6E6E6"/>
<path d="M371.209 195.634C372.997 195.413 374.189 193.152 373.87 190.584C373.551 188.016 371.843 186.114 370.054 186.336C368.266 186.557 367.075 188.818 367.393 191.386C367.712 193.954 369.42 195.856 371.209 195.634Z" fill="#E6E6E6"/>
<path d="M322.304 254.103C324.092 253.881 325.284 251.62 324.965 249.052C324.646 246.485 322.938 244.583 321.149 244.804C319.361 245.026 318.17 247.287 318.488 249.854C318.807 252.422 320.515 254.324 322.304 254.103Z" fill="#E6E6E6"/>
<path d="M346.832 262.97C348.621 262.748 349.812 260.487 349.493 257.92C349.174 255.352 347.466 253.45 345.678 253.671C343.889 253.893 342.698 256.154 343.017 258.722C343.335 261.289 345.044 263.191 346.832 262.97Z" fill="#E6E6E6"/>
<path d="M317.05 288.085C318.839 287.863 320.03 285.602 319.711 283.034C319.393 280.467 317.684 278.565 315.896 278.786C314.107 279.008 312.916 281.269 313.235 283.836C313.553 286.404 315.262 288.306 317.05 288.085Z" fill="#E6E6E6"/>
<path d="M639.416 97.1823C643.377 96.1287 645.993 93.0437 645.259 90.2916C644.525 87.5396 640.719 86.1627 636.758 87.2163C632.797 88.2698 630.181 91.3549 630.915 94.1069C631.649 96.859 635.455 98.2358 639.416 97.1823Z" fill="#E6E6E6"/>
<path d="M590.899 98.0799C594.86 97.0264 597.476 93.9413 596.743 91.1893C596.009 88.4372 592.203 87.0604 588.242 88.1139C584.281 89.1675 581.665 92.2525 582.399 95.0046C583.132 97.7566 586.938 99.1335 590.899 98.0799Z" fill="#E6E6E6"/>
<path d="M648.036 56.8655C651.997 55.8119 654.613 52.7268 653.879 49.9748C653.145 47.2227 649.34 45.8459 645.379 46.8994C641.418 47.953 638.801 51.0381 639.535 53.7901C640.269 56.5422 644.075 57.919 648.036 56.8655Z" fill="#E6E6E6"/>
<path d="M662.344 39.7309C664.132 39.5094 665.324 37.2483 665.005 34.6806C664.686 32.1129 662.978 30.2109 661.189 30.4324C659.401 30.6538 658.21 32.9149 658.528 35.4826C658.847 38.0503 660.555 39.9523 662.344 39.7309Z" fill="#E6E6E6"/>
<path d="M665.966 9.31603C667.755 9.09457 668.946 6.83349 668.627 4.26578C668.309 1.69806 666.601 -0.203943 664.812 0.0175216C663.024 0.238986 661.832 2.50006 662.151 5.06777C662.47 7.63548 664.178 9.53749 665.966 9.31603Z" fill="#E6E6E6"/>
<path d="M617.061 67.7846C618.85 67.5632 620.041 65.3021 619.723 62.7344C619.404 60.1667 617.695 58.2647 615.907 58.4861C614.119 58.7076 612.927 60.9687 613.246 63.5364C613.565 66.1041 615.273 68.0061 617.061 67.7846Z" fill="#E6E6E6"/>
<path d="M641.59 76.6517C643.378 76.4302 644.57 74.1692 644.251 71.6015C643.932 69.0337 642.224 67.1317 640.435 67.3532C638.647 67.5747 637.455 69.8357 637.774 72.4034C638.093 74.9712 639.801 76.8732 641.59 76.6517Z" fill="#E6E6E6"/>
<path d="M611.808 101.767C613.596 101.545 614.788 99.284 614.469 96.7163C614.15 94.1486 612.442 92.2466 610.653 92.4681C608.865 92.6895 607.673 94.9506 607.992 97.5183C608.311 100.086 610.019 101.988 611.808 101.767Z" fill="#E6E6E6"/>
<path d="M330.081 290.394C322.143 290.394 316.983 288.424 314.699 284.508C310.195 276.785 317.738 263.235 337.119 244.234L338.747 245.891C320.744 263.541 312.917 276.841 316.706 283.34C319.105 287.45 326.242 288.923 337.351 287.598C348.379 286.283 362.994 282.364 380.79 275.95C417.426 262.744 463.39 240.469 510.214 213.228C557.037 185.987 599.111 157.042 628.686 131.727C634.367 126.863 639.522 122.185 644.009 117.822C649.899 112.234 655.333 106.186 660.259 99.7339C666.893 90.7378 669.132 83.8097 666.734 79.6985C662.729 72.832 645.904 73.4777 619.356 81.5191L618.682 79.2977C647.165 70.6714 664.008 70.4126 668.742 78.5304C671.684 83.574 669.459 91.1711 662.131 101.111C657.13 107.665 651.612 113.809 645.631 119.485C641.109 123.882 635.917 128.594 630.199 133.489C600.52 158.893 558.325 187.924 511.384 215.233C464.442 242.543 418.343 264.882 381.579 278.134C363.617 284.607 348.83 288.568 337.626 289.903C335.123 290.215 332.603 290.379 330.081 290.394Z" fill="#3F3D56"/>
</g>
<defs>
<clipPath id="clip0_2_99">
<rect width="670" height="528" fill="white"/>
</clipPath>
</defs>
</svg>
