<svg width="71" height="71" viewBox="0 0 71 71" fill="none" xmlns="http://www.w3.org/2000/svg">
<circle cx="38.5" cy="31.5" r="21.5" fill="#61D0FF"/>
<path d="M39.0877 53.034C27.1519 53.034 17.4779 43.36 17.4779 31.4242C17.4779 19.4861 27.1541 9.8121 39.0877 9.8121C51.028 9.8121 60.702 19.4883 60.702 31.4242C60.702 43.36 51.0281 53.034 39.0877 53.034ZM59.3746 31.4242C59.3746 20.2384 50.2734 11.1396 39.0877 11.1396C27.9019 11.1396 18.8054 20.2408 18.8054 31.4242C18.8054 42.6077 27.9042 51.7065 39.0877 51.7065C50.2756 51.7065 59.3746 42.61 59.3746 31.4242Z" fill="black" stroke="black"/>
<path d="M52.2715 57.3813L53.392 59.6444L55.4798 58.6127L52.3159 52.2227L50.2303 53.2567L51.2398 55.2913C47.4968 57.1994 43.3277 58.2089 39.0899 58.2089C24.3241 58.2089 12.314 46.1922 12.314 31.4219C12.314 21.3599 18.014 12.1299 26.9179 7.57261L28.0006 9.75586L30.084 8.72192L26.9201 2.33414L24.8367 3.36807L25.8861 5.48698C16.1946 10.437 9.98657 20.4746 9.98657 31.4219C9.98657 47.0863 22.4182 59.8929 37.9273 60.5075V64.0487C32.5535 64.2572 27.548 65.9146 23.3035 68.6614H28.1714C31.504 67.1704 35.1938 66.334 39.0744 66.334C42.8884 66.334 46.5826 67.1616 49.9529 68.6614H54.843C50.5453 65.8924 45.5221 64.2661 40.2548 64.0487V60.4987C44.446 60.33 48.5507 59.2717 52.2715 57.3813Z" fill="black"/>
</svg>
