<svg width="560" height="401" viewBox="0 0 560 401" fill="none" xmlns="http://www.w3.org/2000/svg">
<g clip-path="url(#clip0_2_156)">
<path d="M453.2 255.154C453.701 255.201 454.204 255.092 454.641 254.844C455.078 254.595 455.427 254.218 455.643 253.764C455.858 253.31 455.928 252.801 455.844 252.306C455.76 251.811 455.526 251.353 455.173 250.995C455.123 250.747 455.087 250.569 455.036 250.321C455.061 250.269 455.086 250.216 455.111 250.164C455.672 248.995 456.566 248.017 457.681 247.354C458.796 246.691 460.083 246.372 461.379 246.437C462.675 246.502 463.923 246.949 464.966 247.72C466.009 248.492 466.801 249.554 467.242 250.773C469.004 255.641 471.307 260.542 471.694 265.62C471.864 267.864 471.643 270.121 471.041 272.291C476.175 262.349 479.11 251.421 479.646 240.247C479.778 237.442 479.752 234.633 479.57 231.832C479.419 229.535 479.166 227.25 478.814 224.977C476.885 212.641 472.055 200.939 464.72 190.83C461.046 188.6 458.145 185.298 456.407 181.369C455.777 179.957 455.355 178.46 455.154 176.927C455.577 177.003 456.007 177.058 456.431 177.105C456.563 177.118 456.702 177.132 456.835 177.145L456.884 177.149C457.351 177.192 457.82 177.099 458.234 176.882C458.649 176.665 458.992 176.332 459.222 175.925C459.452 175.517 459.56 175.052 459.531 174.585C459.503 174.118 459.339 173.669 459.062 173.292C458.888 173.058 458.715 172.824 458.542 172.589C458.279 172.228 458.009 171.874 457.747 171.512C457.716 171.478 457.688 171.442 457.661 171.404C457.359 170.992 457.056 170.587 456.754 170.175C457.382 169.294 458.205 168.571 459.158 168.06C462.46 166.329 466.833 167.838 469.019 170.85C471.212 173.863 471.461 177.958 470.483 181.549C469.544 184.6 468.092 187.469 466.19 190.033C466.354 190.264 466.525 190.488 466.689 190.719C469.684 194.96 472.256 199.485 474.368 204.227C474.043 199.009 474.964 193.789 477.053 188.996C479.152 184.535 482.867 180.87 486.164 177.083C490.125 172.534 497.701 174.952 498.081 180.969C498.084 181.028 498.088 181.086 498.091 181.144C497.617 181.383 497.151 181.639 496.694 181.911C496.12 182.257 495.664 182.768 495.386 183.377C495.108 183.986 495.02 184.664 495.134 185.324C495.248 185.984 495.56 186.594 496.027 187.074C496.494 187.554 497.095 187.882 497.752 188.014L497.82 188.028C497.577 189.686 497.209 191.323 496.718 192.926C495.304 197.397 492.98 201.528 489.893 205.06C486.806 208.592 483.022 211.449 478.778 213.451C478.499 213.577 478.228 213.704 477.95 213.824C479.98 220.555 481.126 227.521 481.358 234.546C481.482 238.691 481.27 242.839 480.724 246.949L480.752 246.804C481.858 242.256 484.501 238.23 488.234 235.404C493.777 231.271 501.393 230.008 507.316 226.755C507.946 226.391 508.668 226.214 509.395 226.246C510.122 226.278 510.826 226.518 511.421 226.936C512.017 227.354 512.481 227.934 512.758 228.606C513.034 229.279 513.113 230.017 512.984 230.733C512.974 230.784 512.963 230.835 512.953 230.886C512.078 231.195 511.224 231.559 510.394 231.974C509.92 232.213 509.454 232.469 508.997 232.741C508.423 233.087 507.967 233.598 507.689 234.207C507.41 234.816 507.323 235.495 507.437 236.154C507.551 236.814 507.863 237.424 508.33 237.904C508.797 238.384 509.398 238.712 510.055 238.844L510.123 238.858C510.171 238.867 510.212 238.876 510.261 238.885C508.631 242.316 506.422 245.441 503.731 248.124C500.41 251.368 496.461 253.9 492.126 255.564C487.791 257.229 483.161 257.992 478.521 257.805L478.514 257.805C477 263.214 474.927 268.451 472.329 273.432L452.879 272.528C452.82 272.309 452.767 272.083 452.715 271.864C454.51 272.061 456.322 272.037 458.111 271.794C456.751 269.958 455.391 268.107 454.03 266.271C454 266.237 453.971 266.2 453.944 266.162C453.255 265.223 452.558 264.29 451.868 263.351L451.867 263.349C451.958 260.572 452.406 257.818 453.2 255.155L453.2 255.154Z" fill="#F2F2F2"/>
<path d="M61.3095 87.1148C60.8127 87.192 60.3042 87.1148 59.8528 86.8935C59.4014 86.6723 59.029 86.3178 58.7861 85.878C58.5431 85.4382 58.4413 84.9344 58.4944 84.4349C58.5476 83.9354 58.7532 83.4643 59.0833 83.0855C59.1182 82.8347 59.1432 82.6546 59.1781 82.4038C59.1503 82.3531 59.1224 82.3024 59.0944 82.2518C58.4622 81.1194 57.5091 80.1989 56.355 79.606C55.2009 79.0131 53.8971 78.7741 52.6075 78.9191C51.3179 79.064 50.0999 79.5866 49.1065 80.421C48.1131 81.2554 47.3887 82.3644 47.0242 83.6089C45.5666 88.5759 43.5704 93.6097 43.4983 98.7019C43.4675 100.953 43.8276 103.192 44.5627 105.32C38.8236 95.7139 35.2186 84.9876 33.9924 73.8679C33.6876 71.0773 33.5392 68.2718 33.5479 65.4646C33.5571 63.163 33.6675 60.8668 33.8791 58.576C35.0414 46.1448 39.1384 34.1664 45.8339 23.6245C49.3628 21.1715 52.0545 17.6967 53.546 13.6683C54.0875 12.2197 54.4163 10.7003 54.5221 9.15757C54.1049 9.25901 53.6786 9.34041 53.2584 9.41411C53.1273 9.43533 52.9893 9.45737 52.8582 9.47864L52.8087 9.48628C52.3459 9.55768 51.8723 9.49389 51.4449 9.30259C51.0174 9.11129 50.6545 8.80064 50.3997 8.40803C50.1449 8.01542 50.0091 7.55758 50.0087 7.08966C50.0082 6.62173 50.1432 6.16366 50.3973 5.77058C50.5555 5.52604 50.7139 5.2816 50.8724 5.03726C51.1122 4.66049 51.3597 4.28991 51.5995 3.9132C51.6279 3.87679 51.6543 3.83878 51.6784 3.79936C51.9546 3.36955 52.2313 2.94671 52.5075 2.5169C51.8266 1.67683 50.9607 1.00525 49.9773 0.55452C46.5752 -0.969482 42.3038 0.806274 40.3081 3.94792C38.3056 7.09027 38.31 11.193 39.5079 14.717C40.6339 17.704 42.2605 20.4777 44.318 22.9194C44.1687 23.1601 44.0117 23.3946 43.8624 23.6353C41.1352 28.0533 38.848 32.7278 37.0334 37.5916C37.0343 32.3635 35.7929 27.2099 33.4114 22.5547C31.0408 18.2326 27.1061 14.8032 23.5806 11.2272C19.3459 6.93188 11.9347 9.81271 11.9274 15.8419C11.9273 15.9002 11.9274 15.9586 11.9276 16.0169C12.4163 16.2264 12.8969 16.4528 13.3696 16.6963C13.9638 17.0059 14.4505 17.4876 14.766 18.0782C15.0815 18.6689 15.2111 19.3411 15.1377 20.0066C15.0644 20.6721 14.7915 21.3 14.3549 21.8079C13.9183 22.3158 13.3383 22.6801 12.6909 22.8531L12.6246 22.8708C12.9691 24.5108 13.4379 26.1223 14.0269 27.6913C15.715 32.0667 18.2896 36.0464 21.5892 39.381C24.8889 42.7157 28.8424 45.3333 33.202 47.0698C33.4877 47.179 33.7665 47.289 34.0514 47.3913C32.4413 54.2344 31.7287 61.2577 31.9314 68.2844C32.0642 72.4286 32.5323 76.5552 33.3309 80.624L33.2943 80.4807C31.909 76.0103 29.022 72.1546 25.121 69.5646C19.3339 65.7818 11.6537 64.9919 5.54107 62.11C4.88945 61.7855 4.15854 61.6539 3.43453 61.7308C2.71053 61.8077 2.02363 62.0899 1.45486 62.544C0.886093 62.9982 0.459169 63.6053 0.224447 64.2939C-0.0102745 64.9826 -0.0430072 65.7239 0.130114 66.4304C0.143347 66.4806 0.156718 66.5308 0.170218 66.5809C1.06241 66.8357 1.93783 67.1458 2.79143 67.5094C3.28007 67.7189 3.76071 67.9454 4.23336 68.1888C4.82755 68.4984 5.31429 68.9801 5.6298 69.5708C5.94531 70.1615 6.07487 70.8336 6.00151 71.4991C5.92816 72.1647 5.65531 72.7925 5.21871 73.3005C4.78211 73.8084 4.20212 74.1727 3.55474 74.3457L3.4884 74.3634C3.4406 74.3756 3.39971 74.3871 3.35199 74.3993C5.19086 77.7231 7.58864 80.7058 10.4403 83.2169C13.9555 86.2495 18.0537 88.5329 22.4835 89.9269C26.9133 91.321 31.5814 91.7963 36.2016 91.3238L36.2085 91.323C38.0542 96.6283 40.4468 101.728 43.3476 106.539L62.7042 104.435C62.7503 104.213 62.7885 103.984 62.8276 103.762C61.0481 104.07 59.2378 104.158 57.4368 104.026C58.6813 102.109 59.9242 100.178 61.1687 98.2615C61.1971 98.2251 61.2235 98.1871 61.2476 98.1477C61.8779 97.1675 62.516 96.1933 63.1464 95.2131L63.1466 95.2119C62.8847 92.4454 62.2675 89.7242 61.3101 87.1152L61.3095 87.1148Z" fill="#F2F2F2"/>
<path d="M328.737 79.9478C329.695 80.2111 330.584 80.6812 331.341 81.3248C332.097 81.9685 332.703 82.77 333.116 83.673C333.529 84.576 333.739 85.5585 333.731 86.5513C333.723 87.5441 333.497 88.5231 333.069 89.4192L343.456 100.958L337.978 108.974L323.538 92.4743C322.079 91.6565 320.971 90.3324 320.424 88.7528C319.877 87.1732 319.928 85.4479 320.569 83.9039C321.21 82.3598 322.395 81.1043 323.901 80.3751C325.406 79.646 327.127 79.4939 328.737 79.9478Z" fill="#A0616A"/>
<path d="M425.981 108.28C425.045 106.758 423.817 105.434 422.367 104.387C420.918 103.339 419.276 102.588 417.535 102.176C415.795 101.764 413.99 101.699 412.224 101.985C410.458 102.272 408.767 102.903 407.246 103.844L373.085 124.984L336.235 93.6873L327.067 102.216L367.775 154.987L420.684 127.429C419.449 128.072 427.473 110.707 425.981 108.28Z" fill="#CCCCCC"/>
<path d="M358.307 178.569C358.31 195.426 354.99 212.119 348.535 227.693C342.08 243.267 332.617 257.419 320.687 269.338C308.757 281.258 294.593 290.713 279.005 297.162C263.417 303.611 246.71 306.929 229.838 306.926C158.888 306.926 101.37 249.457 101.37 178.569C101.357 164.78 103.57 151.08 107.922 137.994C116.466 112.438 132.834 90.2129 154.712 74.4604C176.59 58.7078 202.871 50.2254 229.838 50.2125C253.096 50.2045 275.919 56.5068 295.871 68.4467C315.824 80.3866 332.157 97.5159 343.126 118.006C345.846 123.062 348.218 128.296 350.228 133.673C350.506 134.422 350.777 135.17 351.041 135.926V135.933C352.219 139.256 353.256 142.641 354.153 146.088C356.92 156.693 358.316 167.609 358.307 178.569Z" fill="#3F3D56"/>
<path d="M215.783 91.9684C210.009 88.8491 203.599 87.0883 197.041 86.8202C190.483 86.5521 183.951 87.7839 177.942 90.4216C172.651 92.7222 167.08 96.8491 165.315 104.302C172.453 100.092 181.694 106.743 183.531 117.412L183.102 117.53C182.132 124.919 184.298 132.965 188.491 137.547C189.041 132.787 192.173 129.548 195.254 127.525C198.335 125.501 201.743 124.031 204.095 120.553C206.882 116.43 207.59 110.404 208.698 104.906C209.805 99.4089 211.906 93.5003 215.783 91.9684Z" fill="white"/>
<path d="M175.824 154.852C173.847 157.818 171.207 159.679 168.837 161.997C166.475 164.322 164.226 167.459 163.756 171.488C163.456 174.069 163.92 176.694 163.855 179.304C163.791 181.913 162.92 184.851 161.143 185.5C158.338 186.513 156.197 181.307 153.314 180.944C151.023 180.658 148.96 184.26 149.624 187.383C150.288 190.506 153.407 191.89 155.198 189.85C156.818 192.567 155.676 197.495 153.243 198.329C152.986 200.04 152.729 201.745 152.479 203.456C146.327 199.156 140.11 194.785 134.879 188.488C129.06 181.545 125.452 173.022 124.516 164.015C123.838 156.777 124.844 148.498 121.518 142.929C118.856 138.472 114.288 137.488 110.177 137.766C109.428 137.816 108.671 137.901 107.922 137.994C110.346 130.719 113.425 123.678 117.121 116.958C117.958 116.599 118.735 116.116 119.427 115.525C123.252 112.28 124.951 105.712 128.056 101.17C128.255 100.878 128.462 100.592 128.676 100.314C131.853 96.1713 136.106 94.0391 140.217 92.0567C149.317 87.6427 158.681 83.1716 168.288 83.7849L165.554 84.0487C162.364 92.9766 159.171 101.905 155.976 110.832C155.491 112.202 155.001 113.573 154.506 114.947C152.693 120.024 150.823 125.429 151.101 131.113C151.266 134.479 152.436 138.073 154.663 139.228C156.74 140.297 159.009 138.985 161.015 137.687C161.864 137.146 162.706 136.604 163.556 136.054C166.603 134.093 169.979 132.083 173.198 133.395C176.146 134.593 178.322 138.593 178.736 142.907C179.116 147.101 178.092 151.302 175.824 154.852Z" fill="white"/>
<path d="M193.95 215.805C185.049 210.329 176.148 204.854 167.248 199.378L167.399 198.989C161.865 201.095 159.567 210.924 160.482 218.961C161.396 226.999 164.497 234.184 166.064 242.016C168.176 252.733 167.379 263.82 163.755 274.126C175.459 261.005 185.817 246.744 194.673 231.559C195.91 229.645 196.853 227.556 197.47 225.363C198.035 223.029 197.948 220.224 196.816 218.352C196.087 217.278 195.102 216.403 193.95 215.805Z" fill="white"/>
<path d="M158.822 116.189C157.877 118.312 157.513 121.143 158.371 123.34C159.247 125.584 161.098 126.598 162.803 127.442L167.721 129.878C169.357 130.688 171.121 131.506 172.789 130.84C174.801 130.036 176.195 126.884 175.835 123.959C175.45 120.846 173.487 118.705 171.67 116.881C169.128 114.33 166.587 111.778 164.045 109.226L162.612 110.979C161.063 112.489 159.781 114.251 158.822 116.189Z" fill="white"/>
<path d="M331.942 149.468C334.155 149.988 336.367 150.509 338.58 151.029C338.194 158.496 334.49 165.405 329.523 167.908C327.453 168.949 325.148 169.334 323.435 171.281C321.886 173.05 321.101 175.802 320.38 178.433C319.117 183.026 317.853 187.618 316.59 192.21C315.234 197.159 313.493 202.657 309.967 204.44C306.941 205.973 303.479 204.098 301.153 200.953C298.826 197.808 297.406 193.58 296.028 189.458C296.114 193.95 294.023 198.357 291.061 199.919C288.092 201.481 284.48 200.069 282.496 196.582C281.069 194.079 280.476 190.777 279.077 188.239C277.679 185.7 274.745 184.245 273.218 186.627C272.211 188.21 272.34 190.634 271.84 192.645C271.062 195.769 268.707 197.73 266.373 197.901C264.047 198.072 261.777 196.731 259.829 194.913C255.81 191.148 252.848 185.172 251.699 178.533C251.193 175.574 251.05 172.351 251.928 169.577C252.806 166.803 254.925 164.664 257.031 165.191C258.415 162.268 255.682 158.389 253.22 158.731C250.75 159.073 248.816 161.719 246.789 163.751C244.769 165.783 241.943 167.259 239.909 165.241C239.923 167.117 238.396 168.358 237.075 168.201C235.762 168.051 234.592 166.996 233.386 166.247C228.725 163.344 222.808 165.27 219.497 170.761C221.566 161.961 224.6 151.864 230.959 149.796C233.557 148.947 236.39 149.646 238.845 148.177C243.192 145.574 244.07 135.741 240.316 131.683C240.794 135.52 240.701 139.998 238.674 142.622C236.647 145.246 232.393 143.535 232.65 139.656C232.065 142.33 229.153 142.736 227.811 140.682C226.462 138.629 226.577 135.27 227.533 132.817C228.489 130.364 230.117 128.603 231.694 126.913C235.084 123.283 238.524 119.611 242.45 117.329C246.382 115.047 250.921 114.277 254.861 116.544C256.938 117.742 258.765 119.739 260.885 120.794C263.005 121.857 265.695 121.721 267.101 119.24C268.679 116.473 267.936 112.365 268.522 108.907C269.571 102.796 275.687 99.9363 279.077 103.972C276.544 103.323 273.924 106.318 273.61 109.948C273.289 113.578 275.123 117.243 277.579 118.341C281.704 120.167 285.743 115.574 288.862 111.324C292.117 106.875 295.376 102.427 298.64 97.9824C299.162 97.2256 299.747 96.5147 300.389 95.8575C301.411 94.8619 302.774 94.2918 304.201 94.2626C305.629 94.2335 307.013 94.7475 308.076 95.7006C311.373 98.3889 312.922 103.901 315.627 107.695C319.552 113.207 325.426 114.548 330.893 115.617C334.968 116.409 339.046 117.205 343.126 118.006C345.846 123.061 348.219 128.296 350.228 133.673C343.319 136.604 336.945 142.087 331.942 149.468Z" fill="white"/>
<path d="M345.117 235.267C342.06 241.47 338.503 247.416 334.483 253.044C331.914 251.946 329.152 253.907 326.746 255.747C324.234 257.672 321.215 259.548 318.639 257.794C316.005 255.997 315.156 250.969 315.991 246.983C316.826 243.004 318.91 239.838 320.93 236.829C323.071 233.634 325.362 230.318 328.338 229.077C331.321 227.837 335.154 229.591 336.025 233.827L338.137 233.755C336.952 232.129 337.573 228.764 339.165 228.172C340.999 227.48 342.591 229.997 343.676 232.222C344.161 233.228 344.653 234.24 345.117 235.267Z" fill="white"/>
<path d="M264.207 205.147C259.666 205.432 256.069 199.847 253.679 194.352C251.289 188.858 249.108 182.574 245.011 179.777C242.669 178.179 240 177.96 237.461 177.186C234.922 176.411 232.264 174.809 231.05 171.546L228.169 170.383C224.365 172.52 220.511 174.696 217.233 178.174C213.556 182.076 211.267 187.078 210.716 192.409C210.166 198.169 212.198 204.593 215.995 206.757C218.994 208.466 222.487 207.389 225.526 208.954C229.322 210.91 231.576 216.591 232.43 222.201C233.283 227.81 233.067 233.64 233.677 239.313C234.288 244.986 235.97 250.889 239.452 253.797C243.809 257.435 250.202 254.412 252.157 247.789C253.116 244.54 253.083 240.875 253.8 237.503C255.063 231.564 258.471 227.158 261.174 222.287C263.877 217.416 266.004 210.8 264.207 205.147Z" fill="white"/>
<path d="M219.336 146.793C219.759 147.183 220.155 147.602 220.518 148.047C220.895 148.696 221.087 149.435 221.074 150.185C221.062 150.935 220.844 151.667 220.446 152.303C220.993 152.271 221.527 152.127 222.016 151.879C222.504 151.631 222.936 151.285 223.283 150.862C224.112 149.919 224.841 148.893 225.459 147.8C225.922 147.045 226.415 146.025 226.1 145.129C225.886 144.517 225.378 144.256 225.023 143.796C224.459 143.067 224.32 141.909 224.028 140.908C223.398 138.747 221.888 137.158 220.25 136.93L220.477 136.974C219.793 137.208 219.315 138.294 219.466 139.271C219.604 140.161 220.176 140.9 220.12 141.807C220.038 143.112 218.732 143.725 218.652 145.03C218.639 145.685 218.885 146.318 219.336 146.793Z" fill="white"/>
<path d="M211.556 124.616C211.563 124.614 211.569 124.614 211.576 124.612C211.716 124.485 211.845 124.347 211.964 124.2L211.556 124.616Z" fill="#E6E6E6"/>
<path d="M212.918 130.742C213.922 130.097 214.482 128.313 214.15 126.82C213.821 125.336 212.653 124.338 211.576 124.612C211.264 124.928 210.876 125.16 210.449 125.286C210.022 125.411 209.571 125.426 209.137 125.33C208.471 125.158 207.74 124.717 207.162 125.218C206.832 125.593 206.601 126.044 206.49 126.53C206.276 127.186 206.063 127.841 205.849 128.497C205.747 128.731 205.721 128.992 205.773 129.242C205.814 129.342 205.88 129.43 205.965 129.498C206.05 129.565 206.15 129.61 206.258 129.627C207.54 130.005 208.822 130.382 210.105 130.76C211.039 131.035 212.048 131.3 212.918 130.742Z" fill="white"/>
<path d="M309.727 215.314C309.134 214.344 308.542 213.374 307.949 212.405C307.367 211.282 306.571 210.283 305.605 209.465C305.393 209.287 305.148 209.154 304.883 209.072C304.619 208.991 304.34 208.963 304.065 208.991C303.79 209.018 303.522 209.101 303.279 209.233C303.036 209.365 302.822 209.545 302.649 209.761L302.721 210.315C304.073 212.008 305.502 213.89 305.845 216.403C305.98 217.394 305.933 218.42 306.052 219.415C306.17 220.41 306.507 221.443 307.15 221.872C308.083 222.495 309.179 221.576 309.844 220.455C310.437 219.535 310.704 218.441 310.6 217.351C310.452 216.619 310.155 215.926 309.727 215.314Z" fill="white"/>
<path d="M336.109 178.281C336.28 177.158 336.452 176.035 336.623 174.912C336.901 173.678 336.936 172.402 336.725 171.155C336.677 170.882 336.575 170.622 336.425 170.39C336.275 170.157 336.081 169.957 335.852 169.801C335.624 169.645 335.366 169.536 335.095 169.481C334.824 169.425 334.544 169.425 334.273 169.479L333.971 169.949C333.913 172.114 333.794 174.474 332.436 176.617C331.901 177.462 331.204 178.217 330.653 179.054C330.102 179.892 329.695 180.898 329.91 181.64C330.223 182.718 331.653 182.72 332.884 182.29C333.932 181.968 334.84 181.302 335.463 180.401C335.822 179.746 336.041 179.025 336.109 178.281Z" fill="#E6E6E6"/>
<path d="M319.026 216.576C319.316 215.743 318.898 214.788 318.809 213.868C318.767 212.68 319.082 211.506 319.714 210.499C320.342 209.549 320.818 208.506 321.125 207.41C321.254 206.91 321.23 206.383 321.057 205.897C320.861 205.456 320.386 205.256 320.113 205.604L320.696 205.98C319.909 205.839 319.099 205.878 318.329 206.094C317.889 206.262 317.497 206.534 317.184 206.885C316.872 207.237 316.649 207.659 316.535 208.115C316.438 208.826 316.281 209.528 316.064 210.212C315.716 210.926 315.042 211.164 314.619 211.791C314.33 212.348 314.185 212.967 314.195 213.593C314.205 214.219 314.372 214.833 314.679 215.38C315.21 216.273 316.055 216.937 317.05 217.242C317.762 217.498 318.7 217.511 319.026 216.576Z" fill="white"/>
<path d="M335.586 221.567C335.843 222.237 336.188 222.87 336.612 223.449C337.405 224.247 338.482 223.757 339.444 223.563C340.317 223.425 341.211 223.526 342.031 223.854C342.851 224.183 343.566 224.727 344.102 225.429C343.729 223.571 342.915 221.829 341.729 220.35C340.542 218.871 339.017 217.698 337.283 216.929C335.016 216.006 332.628 215.917 330.27 215.834L329.863 215.938C330.901 218.956 334.159 218.889 335.586 221.567Z" fill="white"/>
<path d="M265.449 227.741L265.455 227.754C265.494 227.678 265.534 227.602 265.573 227.526L265.449 227.741Z" fill="#E6E6E6"/>
<path d="M262.937 232.599C262.389 233.593 261.918 234.627 261.527 235.693C261.01 237.418 260.668 239.192 260.506 240.986C260.378 242.006 260.339 243.308 260.978 243.806C261.162 243.927 261.384 243.978 261.602 243.949C261.821 243.919 262.021 243.811 262.165 243.644C262.521 243.269 262.811 242.837 263.026 242.367C264.283 240.203 265.259 237.889 265.931 235.479C266.543 232.94 266.537 229.952 265.455 227.754C264.616 229.369 263.776 230.984 262.937 232.599Z" fill="white"/>
<path d="M238.701 103.162C239.1 103.552 239.605 103.816 240.153 103.923C240.7 104.03 241.267 103.974 241.784 103.763C242.853 103.296 243.834 102.648 244.684 101.849C245.388 101.329 245.985 100.678 246.442 99.9326C246.694 99.487 246.856 98.9962 246.918 98.4881C246.979 97.9801 246.94 97.4648 246.802 96.972C246.405 95.8114 245.397 95.4223 244.508 95.1589C243.084 94.7372 241.661 94.3155 240.238 93.8938L241.267 92.9665C240.208 92.3985 239.036 93.4527 238.374 94.7579C237.949 95.6102 237.653 96.5205 237.495 97.4594C237.141 99.5081 237.487 101.948 238.701 103.162Z" fill="#E6E6E6"/>
<path d="M263.831 94.7329C264.232 95.1748 264.787 95.4476 265.382 95.496C265.977 95.5444 266.568 95.3647 267.036 94.9934C267.438 94.6915 267.772 94.3083 268.016 93.8688C268.261 93.4293 268.409 92.9434 268.453 92.4426C268.554 91.3239 268 90.0806 267.21 89.984L267.391 88.9367C265.868 88.6619 263.993 88.6068 263.177 90.4548C262.902 91.1627 262.817 91.9304 262.932 92.6811C263.047 93.4319 263.357 94.1394 263.831 94.7329Z" fill="#E6E6E6"/>
<path d="M260.474 39.0369C251.545 38.0306 242.582 40.6095 235.556 46.2062C228.53 51.8029 224.016 59.9591 223.009 68.8804C220.912 87.458 230.708 127.8 248.567 144.5C256.977 112.504 286.444 93.5263 290.344 76.4691C294.51 58.243 279.068 41.1325 260.474 39.0369Z" fill="#6C63FF"/>
<path d="M254.299 80.337C260.401 80.337 265.348 75.3942 265.348 69.297C265.348 63.1998 260.401 58.257 254.299 58.257C248.196 58.257 243.249 63.1998 243.249 69.297C243.249 75.3942 248.196 80.337 254.299 80.337Z" fill="white"/>
<path d="M242.68 160.418C246.677 160.418 249.918 157.18 249.918 153.187C249.918 149.193 246.677 145.956 242.68 145.956C238.683 145.956 235.443 149.193 235.443 153.187C235.443 157.18 238.683 160.418 242.68 160.418Z" fill="#6C63FF"/>
<path opacity="0.2" d="M263.441 61.3874C264.685 62.1341 265.769 63.1183 266.632 64.2837C267.495 65.4491 268.12 66.773 268.471 68.1797C268.822 69.5864 268.892 71.0484 268.678 72.4822C268.463 73.9161 267.968 75.2937 267.221 76.5363C266.474 77.779 265.489 78.8624 264.322 79.7248C263.156 80.5871 261.831 81.2114 260.423 81.5621C257.579 82.2704 254.571 81.821 252.059 80.313C254.62 80.8822 257.3 80.5222 259.62 79.2974C261.94 78.0726 263.747 76.0629 264.719 73.6281C265.692 71.1933 265.765 68.4923 264.926 66.0085C264.087 63.5247 262.391 61.4203 260.141 60.072C261.305 60.3297 262.419 60.7739 263.441 61.3874Z" fill="#231F20"/>
<path opacity="0.2" d="M290.387 76.5048C286.488 93.5619 257.02 112.54 248.611 144.535C246.931 142.95 245.371 141.242 243.944 139.427C253.393 109.352 281.027 91.0772 284.794 74.5969C288.166 59.8468 278.694 45.8288 265.104 39.9072C281.555 44.0391 294.205 59.8023 290.387 76.5048Z" fill="#231F20"/>
<path d="M156.928 82.1132C150.223 81.3575 143.491 83.2942 138.215 87.4971C132.939 91.7001 129.55 97.825 128.793 104.525C127.218 118.476 134.575 148.771 147.987 161.312C154.302 137.285 176.431 123.033 179.359 110.224C182.488 96.5363 170.892 83.6869 156.928 82.1132Z" fill="#6C63FF"/>
<path d="M152.291 113.128C156.873 113.128 160.588 109.416 160.588 104.838C160.588 100.259 156.873 96.5469 152.291 96.5469C147.708 96.5469 143.993 100.259 143.993 104.838C143.993 109.416 147.708 113.128 152.291 113.128Z" fill="white"/>
<path d="M143.566 173.266C146.567 173.266 149.001 170.835 149.001 167.836C149.001 164.837 146.567 162.406 143.566 162.406C140.564 162.406 138.131 164.837 138.131 167.836C138.131 170.835 140.564 173.266 143.566 173.266Z" fill="#6C63FF"/>
<path opacity="0.2" d="M159.156 98.8977C160.09 99.4585 160.905 100.198 161.553 101.073C162.201 101.948 162.67 102.942 162.934 103.999C163.197 105.055 163.25 106.153 163.089 107.23C162.928 108.306 162.556 109.341 161.995 110.274C161.434 111.207 160.694 112.021 159.818 112.668C158.942 113.316 157.947 113.785 156.89 114.048C155.832 114.312 154.733 114.364 153.656 114.203C152.578 114.042 151.543 113.671 150.609 113.11C152.532 113.538 154.545 113.267 156.287 112.347C158.029 111.428 159.386 109.918 160.116 108.09C160.846 106.262 160.901 104.233 160.271 102.368C159.641 100.503 158.367 98.9225 156.678 97.9099C157.552 98.1034 158.389 98.437 159.156 98.8977Z" fill="#231F20"/>
<path opacity="0.2" d="M179.392 110.25C176.463 123.06 154.334 137.311 148.019 161.339C146.758 160.148 145.586 158.866 144.514 157.502C151.611 134.917 172.362 121.194 175.192 108.818C177.724 97.7407 170.611 87.2137 160.405 82.7667C172.759 85.8696 182.259 97.7073 179.392 110.25Z" fill="#231F20"/>
<path d="M416.716 382.446H407.606L403.272 347.335L416.718 347.335L416.716 382.446Z" fill="#A0616A"/>
<path d="M421.618 399.73H415.153L413.999 393.632L411.044 399.73H393.897C393.075 399.73 392.275 399.467 391.613 398.981C390.951 398.494 390.462 397.809 390.217 397.025C389.973 396.241 389.985 395.399 390.253 394.623C390.521 393.847 391.031 393.176 391.707 392.71L405.4 383.262V377.096L419.802 377.955L421.618 399.73Z" fill="#2F2E41"/>
<path d="M381.428 382.446H372.318L367.983 347.335L381.43 347.335L381.428 382.446Z" fill="#A0616A"/>
<path d="M386.329 399.73H379.865L378.711 393.632L375.755 399.73H358.609C357.787 399.73 356.987 399.467 356.325 398.981C355.663 398.494 355.174 397.809 354.929 397.025C354.684 396.241 354.697 395.399 354.965 394.623C355.233 393.847 355.742 393.176 356.419 392.71L370.111 383.262V377.096L384.513 377.955L386.329 399.73Z" fill="#2F2E41"/>
<path d="M346.816 289.745C348.559 292.358 367.526 364.188 367.526 364.188L384.344 366.104L382.348 348.031L379.297 316.049L374.572 294.701C374.572 294.701 391.257 256.76 392.312 253.738L393.062 251.569L398.275 298.838C398.894 300.525 399.164 302.321 399.068 304.116C398.911 307.069 401.875 351.489 401.875 351.489L403.3 367.419L417.71 369.419L423.556 341.856C428.437 332.902 425.639 301.085 423.643 298.124C421.647 295.162 422.44 274.537 422.44 274.537C424.989 273.641 440.19 221.85 432.587 222.156C433.075 219.395 433.459 216.93 433.459 216.93L420.26 206.295L387.23 197.716L378.897 193.718C378.897 193.718 364.013 221.215 364.161 222.583C364.367 224.315 363.969 226.064 363.037 227.539L348.01 277.786C348.01 277.786 345.055 287.106 346.816 289.745Z" fill="#2F2E41"/>
<path d="M429.799 109.941L424.544 98.794L406.66 99.4808L400.826 111.077C400.826 111.077 384.155 130.973 383.615 137.442C382.936 145.578 388.577 185.455 382.936 182.87C382.936 182.87 369.639 198.464 377.507 198.464C385.376 198.464 420.968 220.788 423.303 223.298C425.639 225.809 436.064 227.437 435.19 222.196C434.316 216.955 429.799 188.61 429.799 188.61L442.027 144.041C445.546 134.419 446.641 123.625 438.686 117.162L429.799 109.941Z" fill="#CCCCCC"/>
<path d="M363.553 77.1326C361.16 76.1838 358.605 75.7151 356.031 75.7533C353.458 75.7914 350.917 76.3356 348.554 77.3548C346.191 78.3739 344.052 79.8482 342.259 81.6933C340.466 83.5384 339.055 85.7182 338.105 88.1083C334.112 98.1601 333.45 122.165 340.882 134.195C350.437 117.611 369.77 111.487 374.538 102.558C379.633 93.0158 373.613 81.1227 363.553 77.1326Z" fill="#6C63FF"/>
<path d="M355.508 99.4731C359.038 99.4731 361.899 96.6139 361.899 93.0869C361.899 89.5598 359.038 86.7006 355.508 86.7006C351.978 86.7006 349.116 89.5598 349.116 93.0869C349.116 96.6139 351.978 99.4731 355.508 99.4731Z" fill="white"/>
<path d="M336.276 142.334C338.588 142.334 340.462 140.462 340.462 138.151C340.462 135.841 338.588 133.969 336.276 133.969C333.964 133.969 332.089 135.841 332.089 138.151C332.089 140.462 333.964 142.334 336.276 142.334Z" fill="#6C63FF"/>
<path opacity="0.2" d="M361.813 90.0585C362.984 91.2817 363.621 92.9193 363.584 94.6115C363.547 96.3037 362.839 97.9121 361.616 99.0833C360.393 100.254 358.755 100.893 357.061 100.858C355.368 100.822 353.757 100.117 352.584 98.8962C353.927 99.6024 355.477 99.808 356.958 99.4761C358.439 99.1443 359.754 98.2967 360.666 97.0851C361.579 95.8735 362.03 94.3769 361.939 92.8632C361.848 91.3496 361.221 89.9176 360.17 88.8237C360.781 89.1441 361.336 89.5611 361.813 90.0585Z" fill="#231F20"/>
<path opacity="0.2" d="M374.557 102.584C369.788 111.514 350.456 117.638 340.901 134.222C340.204 133.082 339.593 131.892 339.072 130.662C348.916 115.308 367.118 109.299 371.725 100.671C375.848 92.9488 372.691 83.6874 366.005 78.3206C374.56 83.1223 379.226 93.84 374.557 102.584Z" fill="#231F20"/>
<path d="M334.389 136.711C335.362 136.511 336.368 136.526 337.334 136.756C338.301 136.985 339.206 137.424 339.984 138.041C340.763 138.658 341.397 139.438 341.841 140.326C342.285 141.214 342.529 142.188 342.556 143.181L357.057 148.742L355.824 158.371L335.456 150.23C333.784 150.164 332.195 149.488 330.989 148.329C329.783 147.171 329.044 145.61 328.912 143.944C328.781 142.278 329.266 140.621 330.275 139.288C331.285 137.955 332.748 137.038 334.389 136.711Z" fill="#A0616A"/>
<path d="M435.711 116.869C434.184 115.937 432.489 115.316 430.721 115.041C428.954 114.766 427.149 114.843 425.411 115.266C423.673 115.689 422.036 116.451 420.594 117.508C419.151 118.565 417.931 119.896 417.005 121.425L396.191 155.766L349.131 144.621L344.843 156.381L405.108 184.903L435.631 136.331C440.201 129.914 442.439 120.972 435.711 116.869Z" fill="#CCCCCC"/>
<path d="M436.488 74.7819C436.49 78.0919 435.678 81.3515 434.124 84.2746C432.57 87.1978 430.321 89.6951 427.576 91.5474C424.83 93.3997 421.672 94.5503 418.377 94.8982C415.083 95.2461 411.753 94.7807 408.681 93.5428C405.609 92.305 402.887 90.3325 400.756 87.7985C398.625 85.2645 397.149 82.2465 396.457 79.0095C395.766 75.7725 395.88 72.4154 396.791 69.2329C397.701 66.0504 399.379 63.1398 401.678 60.7567L401.775 60.6598C401.937 60.4898 402.099 60.32 402.269 60.1582C402.27 60.1582 402.271 60.158 402.272 60.1576C402.273 60.1572 402.274 60.1566 402.275 60.1559C402.276 60.1551 402.276 60.1542 402.277 60.1532C402.277 60.1522 402.277 60.1512 402.277 60.1501C402.488 59.956 402.698 59.7619 402.917 59.5759C405.841 57.0142 409.443 55.3489 413.29 54.7794C417.137 54.2099 421.067 54.7603 424.609 56.3647C428.152 57.9692 431.156 60.5596 433.263 63.826C435.37 67.0923 436.489 70.8961 436.488 74.7819Z" fill="#2F2E41"/>
<path d="M411.264 96.4165C420.637 96.4165 428.235 88.825 428.235 79.4605C428.235 70.0959 420.637 62.5045 411.264 62.5045C401.891 62.5045 394.293 70.0959 394.293 79.4605C394.293 88.825 401.891 96.4165 411.264 96.4165Z" fill="#9E616A"/>
<path d="M429.285 84.296L426.473 83.7998C424.902 83.5145 423.456 82.7567 422.327 81.6277C421.199 80.4987 420.443 79.0525 420.159 77.4823L417.415 82.0766L417.295 82.1163C410.758 84.2848 403.957 83.6362 396.507 80.1362C394.377 79.1266 392.31 77.9883 390.319 76.7275L390.172 76.6358L390.16 76.4633C389.78 70.9473 391.019 66.3392 393.649 63.4877C394.659 62.4148 395.884 61.5673 397.245 61.0007C398.605 60.434 400.071 60.161 401.544 60.1995C401.649 60.1721 401.745 60.119 401.824 60.0449C401.862 60.0171 401.9 59.9896 401.938 59.9635V59.935L402.133 59.8433C402.551 59.6466 402.978 59.4582 403.405 59.2861C406.763 57.9873 410.42 57.6615 413.955 58.3461C417.49 59.0307 420.76 60.698 423.389 63.1563C428.617 68.1425 431.014 76.5103 429.356 83.9792L429.285 84.296Z" fill="#2F2E41"/>
<path d="M465.08 98.7426C459.305 95.7644 466.733 84.9553 465.24 78.6355C463.748 72.3157 453 70.283 452.315 63.8258C451.63 57.3686 450.02 50.7086 445.755 45.8088C443.03 42.6779 439.014 40.3665 434.88 40.7587C433.481 40.8914 432.128 41.3237 430.911 42.0263C429.695 42.7288 428.644 43.6851 427.831 44.8299C427.017 45.9747 426.461 47.2813 426.198 48.6605C425.936 50.0397 425.974 51.4591 426.31 52.8222C425.133 51.1558 422.087 51.517 421.333 53.4125C420.663 55.0976 422.144 57.1387 423.886 57.2878C426.167 60.1016 428.778 63.0879 432.351 63.6555C432.92 63.7861 433.512 63.7858 434.081 63.6545C434.65 63.5233 435.182 63.2646 435.636 62.8979C436.477 62.0914 436.542 60.4791 435.545 59.8764C440.035 61.6584 442.667 66.5086 443.333 71.2894C443.999 76.0702 443.078 80.9074 442.47 85.6961C441.863 90.4847 441.601 95.5221 443.481 99.9689C445.701 105.223 450.813 108.988 456.392 110.196C461.97 111.404 467.911 110.223 472.961 107.564C478.011 104.905 482.222 100.845 485.662 96.2942C479.736 100.498 471.538 102.073 465.08 98.7426Z" fill="#2F2E41"/>
<path d="M428.563 83.8247C428.563 83.8247 423.536 65.076 401.986 60.7487C401.962 60.7407 401.881 60.7083 401.775 60.6598C401.711 60.6193 401.63 60.5789 401.549 60.5385C401.792 60.4009 402.026 60.2797 402.269 60.1582L402.272 60.1577L402.275 60.1559L402.277 60.1533L402.277 60.1502C402.488 59.956 402.698 59.7619 402.917 59.5759L403.532 59.6002C403.532 59.6002 425.155 56.1788 428.563 83.8247Z" fill="#FD6584"/>
<path opacity="0.2" d="M417.308 143.984L405.136 158.073L385.025 152.14L406.95 162.234L417.308 143.984Z" fill="black"/>
<path d="M498.576 275.329C489.814 275.329 480.21 274.998 469.764 274.337C415.737 270.909 345.754 258.991 272.709 240.779C199.663 222.568 132.281 200.237 82.976 177.903C58.9579 167.022 40.5241 156.723 28.1873 147.291C15.1258 137.306 9.41254 128.602 11.2055 121.422C14.6991 107.435 45.6327 104.375 70.9676 104.271L70.9763 106.306C36.1846 106.448 15.6593 111.992 13.1811 121.915C10.0242 134.554 35.7701 154.285 83.8167 176.05C133.014 198.336 200.272 220.623 273.202 238.806C346.131 256.988 415.985 268.886 469.893 272.306C522.54 275.648 554.547 270.315 557.703 257.676C560.324 247.182 543.046 231.724 509.053 214.147L509.989 212.341C534.689 225.112 563.36 243.43 559.679 258.168C557.886 265.348 548.749 270.349 532.524 273.033C523.275 274.562 511.914 275.329 498.576 275.329Z" fill="#6C63FF"/>
</g>
<defs>
<clipPath id="clip0_2_156">
<rect width="560" height="401" fill="white"/>
</clipPath>
</defs>
</svg>
