<svg width="569" height="294" viewBox="0 0 569 294" fill="none" xmlns="http://www.w3.org/2000/svg">
<g clip-path="url(#clip0_1_47)">
<path d="M284.5 262.783C441.625 262.783 569 259.22 569 254.825C569 250.43 441.625 246.867 284.5 246.867C127.375 246.867 0 250.43 0 254.825C0 259.22 127.375 262.783 284.5 262.783Z" fill="#E6E6E6"/>
<path d="M436.118 168.594C435.759 168.599 435.4 168.604 435.036 168.604C434.672 168.604 434.312 168.599 433.953 168.594C414.909 168.161 401.105 156.262 404.619 143.777L413.186 113.321L415.352 105.615L453.736 106.269L456.068 113.808L465.251 143.482C469.139 156.036 455.335 168.161 436.118 168.594Z" fill="#3F3D56"/>
<path opacity="0.2" d="M456.068 113.808C449.524 117.549 442.099 119.476 434.561 119.391C427.023 119.305 419.644 117.21 413.186 113.321L415.352 105.615L453.736 106.269L456.068 113.808Z" fill="black"/>
<path d="M454.448 144.788C456.106 138.608 461.556 129.694 476.839 118.945C503.494 100.197 487.593 86.1395 486.904 85.5505C485.459 84.3151 485.672 82.9278 487.401 82.4539C488.404 82.2532 489.44 82.2694 490.437 82.5015C491.434 82.7336 492.37 83.1762 493.182 83.7996C494.045 84.5135 513.956 101.517 483.879 122.669C456.81 141.709 462.566 154.137 462.632 154.256C463.357 155.586 462.194 156.649 460.031 156.635C457.869 156.62 455.526 155.532 454.799 154.204C454.646 153.924 452.904 150.541 454.448 144.788Z" fill="#3F3D56"/>
<path d="M417.32 173.033C416.738 173.033 416.162 172.919 415.625 172.696C415.088 172.473 414.6 172.147 414.188 171.736C413.777 171.325 413.451 170.836 413.228 170.299C413.006 169.762 412.891 169.186 412.891 168.604V149.412C412.891 148.237 413.358 147.111 414.188 146.28C415.019 145.45 416.145 144.983 417.32 144.983C418.495 144.983 419.621 145.45 420.452 146.28C421.282 147.111 421.749 148.237 421.749 149.412V168.604C421.749 169.186 421.634 169.762 421.412 170.299C421.189 170.836 420.863 171.325 420.452 171.736C420.041 172.147 419.552 172.473 419.015 172.696C418.478 172.919 417.902 173.033 417.32 173.033Z" fill="#3F3D56"/>
<path d="M421.203 127.47C420.96 127.998 420.615 128.474 420.189 128.869C419.762 129.264 419.261 129.571 418.716 129.773C418.17 129.975 417.59 130.067 417.009 130.045C416.428 130.022 415.857 129.885 415.329 129.642L397.893 121.621C396.827 121.129 396 120.234 395.594 119.133C395.187 118.032 395.235 116.814 395.725 115.748C396.216 114.681 397.11 113.854 398.21 113.446C399.311 113.038 400.529 113.084 401.596 113.574L419.031 121.595C419.559 121.838 420.035 122.183 420.43 122.61C420.825 123.037 421.132 123.537 421.334 124.083C421.536 124.628 421.628 125.208 421.605 125.789C421.583 126.371 421.446 126.942 421.203 127.47Z" fill="#3F3D56"/>
<path d="M448.868 127.47C449.111 127.998 449.456 128.474 449.883 128.869C450.31 129.264 450.81 129.571 451.356 129.773C451.901 129.975 452.481 130.067 453.062 130.045C453.644 130.022 454.215 129.886 454.743 129.642L472.178 121.621C473.245 121.13 474.074 120.235 474.481 119.133C474.889 118.031 474.842 116.813 474.351 115.746C473.86 114.679 472.965 113.85 471.863 113.443C470.761 113.036 469.543 113.083 468.476 113.574L451.041 121.595C450.512 121.838 450.037 122.183 449.642 122.61C449.247 123.037 448.94 123.537 448.738 124.083C448.536 124.628 448.444 125.208 448.466 125.789C448.489 126.371 448.625 126.942 448.868 127.47Z" fill="#3F3D56"/>
<path d="M452.751 173.033C453.333 173.033 453.909 172.919 454.446 172.696C454.984 172.473 455.472 172.147 455.883 171.736C456.295 171.325 456.621 170.836 456.843 170.299C457.066 169.762 457.18 169.186 457.18 168.604V149.412C457.18 148.237 456.714 147.111 455.883 146.28C455.053 145.45 453.926 144.983 452.751 144.983C451.577 144.983 450.45 145.45 449.62 146.28C448.789 147.111 448.323 148.237 448.323 149.412V168.604C448.323 169.186 448.437 169.762 448.66 170.299C448.882 170.836 449.208 171.325 449.62 171.736C450.031 172.147 450.519 172.473 451.057 172.696C451.594 172.919 452.17 173.033 452.751 173.033Z" fill="#3F3D56"/>
<path d="M471.261 48.7833C471.643 48.3012 471.92 47.7435 472.071 47.1469C472.223 46.5502 472.246 45.9283 472.14 45.322L469.729 31.1416L467.319 16.9613C467.189 16.1956 466.859 15.4777 466.364 14.8798C465.868 14.2818 465.224 13.8248 464.496 13.5547C463.768 13.2845 462.981 13.2109 462.216 13.341C461.45 13.4712 460.732 13.8006 460.134 14.2961L449.059 23.4738L442.386 29.003C437.936 28.2117 433.388 28.1431 428.916 28.7999L422.489 23.4738L411.414 14.2961C410.816 13.8006 410.098 13.4712 409.332 13.341C408.567 13.2109 407.78 13.2846 407.052 13.5547C406.324 13.8248 405.68 14.2818 405.184 14.8798C404.689 15.4778 404.359 16.1957 404.229 16.9613L401.819 31.1416L399.408 45.322C399.28 46.0673 399.346 46.8332 399.601 47.5451C395.47 53.8779 393.112 61.2019 392.771 68.7553C392.43 76.3086 394.119 83.8153 397.662 90.4946C401.205 97.1739 406.474 102.782 412.919 106.735C419.364 110.688 426.751 112.842 434.311 112.972C441.871 113.103 449.328 111.206 455.906 107.478C462.484 103.75 467.943 98.327 471.715 91.7741C475.487 85.2213 477.434 77.7773 477.354 70.2167C477.275 62.6561 475.17 55.255 471.261 48.7833Z" fill="#3F3D56"/>
<path d="M410.304 20.1071C410.041 20.1074 409.781 20.1547 409.535 20.2467C409.173 20.3784 408.853 20.604 408.607 20.9004C408.361 21.1968 408.199 21.5533 408.137 21.9332L405.214 39.1296C405.149 39.5087 405.186 39.898 405.32 40.2585C405.453 40.619 405.68 40.9379 405.976 41.1833C406.272 41.4286 406.627 41.5917 407.006 41.6561C407.385 41.7205 407.775 41.684 408.135 41.5503L424.489 35.4835C424.849 35.3498 425.168 35.1235 425.414 34.8275C425.659 34.5315 425.822 34.1761 425.886 33.7971C425.951 33.4181 425.914 33.0288 425.781 32.6683C425.647 32.3079 425.421 31.989 425.125 31.7437L411.694 20.6138C411.304 20.2873 410.812 20.108 410.304 20.1071Z" fill="#E6E6E6"/>
<path d="M461.244 20.1071C460.736 20.108 460.244 20.2873 459.854 20.6138L446.423 31.7437C446.127 31.989 445.901 32.3079 445.767 32.6683C445.634 33.0288 445.597 33.4181 445.662 33.7971C445.726 34.1761 445.889 34.5315 446.134 34.8275C446.38 35.1235 446.699 35.3498 447.059 35.4835L463.413 41.5503C463.773 41.684 464.163 41.7205 464.542 41.6561C464.921 41.5917 465.276 41.4286 465.572 41.1833C465.868 40.9379 466.095 40.619 466.228 40.2585C466.362 39.898 466.399 39.5087 466.334 39.1296L463.411 21.9332C463.349 21.5533 463.186 21.1968 462.941 20.9004C462.695 20.604 462.375 20.3784 462.013 20.2467C461.767 20.1547 461.507 20.1074 461.244 20.1071Z" fill="#E6E6E6"/>
<path d="M435.036 82.4855C438.297 82.4855 440.941 79.8416 440.941 76.5802C440.941 73.3188 438.297 70.6749 435.036 70.6749C431.774 70.6749 429.131 73.3188 429.131 76.5802C429.131 79.8416 431.774 82.4855 435.036 82.4855Z" fill="#E6E6E6"/>
<path d="M435.036 75.1039C437.21 75.1039 438.973 74.4429 438.973 73.6275C438.973 72.8122 437.21 72.1512 435.036 72.1512C432.862 72.1512 431.099 72.8122 431.099 73.6275C431.099 74.4429 432.862 75.1039 435.036 75.1039Z" fill="#3F3D56"/>
<path d="M432.083 80.0249H437.496V86.6684C437.496 87.0238 437.426 87.3758 437.29 87.7041C437.154 88.0325 436.955 88.3309 436.704 88.5822C436.452 88.8336 436.154 89.0329 435.825 89.1689C435.497 89.305 435.145 89.375 434.79 89.375C434.072 89.375 433.383 89.0898 432.876 88.5822C432.368 88.0746 432.083 87.3862 432.083 86.6684L432.083 80.0249Z" fill="#FF6584"/>
<path d="M435.364 13.0428C435.081 13.6314 434.805 14.2264 434.546 14.8336C431.492 21.9562 430.462 29.7832 431.569 37.4534C432.123 36.6495 432.706 35.812 433.298 34.9653C432.029 27.6038 432.743 20.0375 435.364 13.0428Z" fill="#3F3D56"/>
<path d="M439.793 18.4559C439.509 19.0446 439.234 19.6396 438.975 20.2468C435.921 27.3694 434.891 35.1964 435.998 42.8666C436.552 42.0627 437.135 41.2252 437.727 40.3785C436.458 33.017 437.172 25.4507 439.793 18.4559Z" fill="#3F3D56"/>
<path d="M453.448 124.728L452.824 116.793L452.2 108.858C452.167 108.43 452.021 108.018 451.777 107.664C451.534 107.309 451.202 107.026 450.814 106.84C450.426 106.655 449.996 106.576 449.568 106.609C449.139 106.643 448.727 106.789 448.373 107.032L441.813 111.54L437.023 114.832C436.717 114.473 436.337 114.185 435.909 113.988C435.481 113.791 435.015 113.689 434.544 113.689C434.072 113.689 433.606 113.791 433.178 113.988C432.75 114.185 432.37 114.473 432.064 114.832L427.274 111.54L420.714 107.032C420.36 106.789 419.948 106.643 419.52 106.609C419.091 106.576 418.662 106.655 418.274 106.84C417.886 107.025 417.553 107.309 417.31 107.664C417.067 108.018 416.921 108.43 416.887 108.858L416.263 116.793L415.639 124.728C415.606 125.156 415.685 125.586 415.87 125.974C416.055 126.361 416.339 126.694 416.693 126.937C417.048 127.181 417.46 127.326 417.888 127.36C418.316 127.394 418.746 127.314 419.134 127.129L426.318 123.702L432.22 120.886C432.524 121.194 432.885 121.438 433.284 121.605C433.683 121.772 434.111 121.858 434.544 121.858C434.976 121.858 435.404 121.772 435.803 121.605C436.202 121.438 436.564 121.194 436.867 120.886L442.77 123.702L449.953 127.129C450.341 127.314 450.771 127.394 451.199 127.36C451.628 127.326 452.04 127.181 452.394 126.937C452.748 126.694 453.032 126.361 453.217 125.974C453.402 125.586 453.482 125.156 453.448 124.728Z" fill="#6C63FF"/>
<path d="M427.162 71.6591C427.977 71.6591 428.638 70.9981 428.638 70.1828C428.638 69.3675 427.977 68.7065 427.162 68.7065C426.347 68.7065 425.686 69.3675 425.686 70.1828C425.686 70.9981 426.347 71.6591 427.162 71.6591Z" fill="#E6E6E6"/>
<path d="M442.909 71.6591C443.725 71.6591 444.386 70.9981 444.386 70.1828C444.386 69.3675 443.725 68.7065 442.909 68.7065C442.094 68.7065 441.433 69.3675 441.433 70.1828C441.433 70.9981 442.094 71.6591 442.909 71.6591Z" fill="#E6E6E6"/>
<path d="M149.39 155.552C149.749 155.557 150.109 155.561 150.473 155.561C150.837 155.561 151.196 155.557 151.555 155.552C170.6 155.119 184.403 143.219 180.89 130.735L172.322 100.278L170.157 92.5717L131.773 93.2262L129.44 100.765L120.257 130.439C116.37 142.993 130.173 155.119 149.39 155.552Z" fill="#3F3D56"/>
<path opacity="0.2" d="M129.44 100.765C135.985 104.506 143.409 106.434 150.947 106.348C158.485 106.262 165.864 104.167 172.322 100.278L170.157 92.5717L131.773 93.2262L129.44 100.765Z" fill="black"/>
<path d="M126.398 128.135C122.255 123.259 113.515 117.534 95.1023 114.359C62.9892 108.819 71.3452 89.3101 71.7159 88.4829C72.4937 86.7478 71.7072 85.5854 69.9423 85.8965C68.949 86.1447 68.0202 86.6024 67.2183 87.2388C66.4163 87.8753 65.7597 88.6759 65.2924 89.5869C64.8179 90.6013 54.0977 114.489 90.3333 120.737C122.945 126.363 123.062 140.059 123.053 140.195C122.966 141.707 124.473 142.17 126.421 141.232C128.37 140.294 130.021 138.308 130.111 136.796C130.129 136.477 130.256 132.674 126.398 128.135Z" fill="#3F3D56"/>
<path d="M168.188 159.99C168.77 159.99 169.346 159.876 169.883 159.653C170.421 159.431 170.909 159.104 171.32 158.693C171.731 158.282 172.058 157.794 172.28 157.256C172.503 156.719 172.617 156.143 172.617 155.561V136.369C172.616 135.196 172.149 134.07 171.318 133.241C170.488 132.412 169.362 131.946 168.188 131.946C167.015 131.946 165.889 132.412 165.059 133.241C164.228 134.07 163.761 135.196 163.76 136.369V155.561C163.759 156.143 163.874 156.719 164.097 157.256C164.319 157.794 164.645 158.282 165.057 158.693C165.468 159.104 165.956 159.431 166.494 159.653C167.031 159.876 167.607 159.99 168.188 159.99Z" fill="#3F3D56"/>
<path d="M164.305 114.427C164.548 114.956 164.893 115.431 165.32 115.826C165.747 116.221 166.247 116.528 166.793 116.73C167.338 116.932 167.918 117.024 168.499 117.002C169.08 116.979 169.652 116.843 170.18 116.6L187.615 108.578C188.144 108.335 188.62 107.991 189.016 107.564C189.412 107.137 189.719 106.636 189.921 106.091C190.124 105.545 190.216 104.965 190.194 104.383C190.172 103.801 190.035 103.23 189.792 102.701C189.548 102.172 189.203 101.697 188.776 101.302C188.349 100.906 187.848 100.599 187.302 100.397C186.756 100.196 186.176 100.104 185.594 100.127C185.013 100.15 184.441 100.287 183.913 100.531L166.478 108.553C165.949 108.796 165.474 109.14 165.079 109.567C164.684 109.994 164.376 110.494 164.175 111.04C163.973 111.586 163.881 112.165 163.903 112.747C163.925 113.328 164.062 113.899 164.305 114.427Z" fill="#3F3D56"/>
<path d="M136.64 114.427C136.397 114.956 136.052 115.431 135.625 115.826C135.199 116.221 134.698 116.528 134.153 116.73C133.607 116.932 133.027 117.024 132.446 117.002C131.865 116.979 131.294 116.843 130.765 116.6L113.33 108.578C112.801 108.335 112.325 107.991 111.929 107.564C111.534 107.137 111.226 106.636 111.024 106.091C110.822 105.545 110.729 104.965 110.751 104.383C110.774 103.801 110.91 103.23 111.154 102.701C111.397 102.172 111.742 101.697 112.169 101.302C112.596 100.906 113.097 100.599 113.643 100.397C114.189 100.196 114.77 100.104 115.351 100.127C115.933 100.15 116.504 100.287 117.033 100.531L134.468 108.553C134.996 108.796 135.472 109.14 135.867 109.567C136.262 109.994 136.569 110.494 136.771 111.04C136.972 111.586 137.065 112.165 137.042 112.747C137.02 113.328 136.883 113.899 136.64 114.427Z" fill="#3F3D56"/>
<path d="M132.757 159.99C132.175 159.99 131.599 159.876 131.062 159.653C130.525 159.431 130.036 159.104 129.625 158.693C129.214 158.282 128.888 157.794 128.665 157.256C128.443 156.719 128.328 156.143 128.328 155.561V136.369C128.329 135.196 128.797 134.07 129.627 133.241C130.458 132.412 131.583 131.946 132.757 131.946C133.931 131.946 135.056 132.412 135.887 133.241C136.717 134.07 137.184 135.196 137.186 136.369V155.561C137.186 156.143 137.071 156.719 136.849 157.256C136.626 157.794 136.3 158.282 135.889 158.693C135.477 159.104 134.989 159.431 134.452 159.653C133.915 159.876 133.339 159.99 132.757 159.99Z" fill="#3F3D56"/>
<path d="M185.907 34.5024C186.162 33.7904 186.229 33.0245 186.1 32.2792L183.69 18.0989L181.279 3.91852C181.149 3.15288 180.82 2.43499 180.324 1.837C179.829 1.23901 179.184 0.782004 178.456 0.511896C177.728 0.241788 176.942 0.168098 176.176 0.298246C175.411 0.428394 174.693 0.757793 174.095 1.25332L163.019 10.431L156.592 15.7571C152.12 15.1004 147.572 15.1689 143.122 15.9602L136.45 10.431L125.374 1.2533C124.776 0.757772 124.059 0.428375 123.293 0.298226C122.527 0.168077 121.741 0.241759 121.013 0.511867C120.285 0.781975 119.64 1.23899 119.145 1.83698C118.649 2.43497 118.32 3.15286 118.19 3.9185L115.779 18.0989L113.369 32.2792C113.262 32.8855 113.286 33.5075 113.437 34.1041C113.589 34.7007 113.865 35.2585 114.248 35.7405C110.333 42.2137 108.225 49.6178 108.142 57.1823C108.06 64.7467 110.006 72.195 113.778 78.7521C117.551 85.3093 123.012 90.7355 129.593 94.4662C136.174 98.1969 143.634 100.096 151.198 99.965C158.762 99.8343 166.152 97.6789 172.6 93.7231C179.048 89.7673 184.319 84.1556 187.862 77.4721C191.406 70.7886 193.094 63.2774 192.75 55.7204C192.406 48.1633 190.043 40.8365 185.907 34.5024Z" fill="#3F3D56"/>
<path d="M173.814 7.57103L160.384 18.7004C160.088 18.9457 159.862 19.2651 159.728 19.6256C159.594 19.986 159.558 20.3753 159.622 20.7543C159.687 21.1333 159.85 21.4887 160.095 21.7847C160.34 22.0807 160.659 22.307 161.02 22.4407L177.373 28.5074C177.734 28.6412 178.123 28.6777 178.502 28.6133C178.881 28.5488 179.237 28.3858 179.533 28.1405C179.829 27.8951 180.055 27.5762 180.189 27.2157C180.323 26.8552 180.359 26.4659 180.295 26.0868L177.372 8.89044C177.309 8.51052 177.147 8.15404 176.901 7.85763C176.656 7.56122 176.335 7.33557 175.974 7.20388C175.728 7.11192 175.467 7.06464 175.205 7.06427C174.696 7.06522 174.204 7.24456 173.814 7.57103Z" fill="#E6E6E6"/>
<path d="M123.495 7.20388C123.134 7.33557 122.813 7.56121 122.568 7.85762C122.322 8.15403 122.16 8.51052 122.097 8.89044L119.174 26.0868C119.11 26.4659 119.146 26.8552 119.28 27.2157C119.414 27.5762 119.64 27.8951 119.936 28.1405C120.232 28.3858 120.588 28.5488 120.967 28.6133C121.346 28.6777 121.735 28.6412 122.096 28.5074L138.45 22.4407C138.81 22.307 139.129 22.0807 139.374 21.7847C139.619 21.4887 139.783 21.1333 139.847 20.7543C139.911 20.3753 139.875 19.986 139.741 19.6256C139.608 19.2651 139.381 18.9462 139.085 18.7009L125.655 7.57103C125.265 7.24456 124.773 7.06522 124.264 7.06427C124.002 7.06464 123.741 7.11192 123.495 7.20388Z" fill="#E6E6E6"/>
<path d="M150.473 69.4427C153.734 69.4427 156.378 66.7988 156.378 63.5374C156.378 60.276 153.734 57.6321 150.473 57.6321C147.211 57.6321 144.567 60.276 144.567 63.5374C144.567 66.7988 147.211 69.4427 150.473 69.4427Z" fill="#E6E6E6"/>
<path d="M150.473 62.0611C152.647 62.0611 154.41 61.4001 154.41 60.5848C154.41 59.7694 152.647 59.1085 150.473 59.1085C148.298 59.1085 146.536 59.7694 146.536 60.5848C146.536 61.4001 148.298 62.0611 150.473 62.0611Z" fill="#3F3D56"/>
<path d="M150.719 76.3322C150.363 76.3322 150.011 76.2622 149.683 76.1262C149.355 75.9902 149.056 75.7908 148.805 75.5395C148.554 75.2881 148.354 74.9898 148.218 74.6614C148.082 74.333 148.012 73.981 148.012 73.6256V66.9822H153.425V73.6256C153.425 73.981 153.355 74.333 153.219 74.6614C153.083 74.9898 152.884 75.2881 152.633 75.5395C152.381 75.7908 152.083 75.9902 151.754 76.1262C151.426 76.2622 151.074 76.3322 150.719 76.3322Z" fill="#FF6584"/>
<path d="M150.144 0C150.428 0.588641 150.704 1.18365 150.963 1.79082C154.017 8.91341 155.047 16.7405 153.939 24.4107C153.385 23.6068 152.803 22.7693 152.211 21.9225C153.479 14.5611 152.766 6.99472 150.144 0Z" fill="#3F3D56"/>
<path d="M145.715 5.41318C145.999 6.00182 146.275 6.59682 146.534 7.204C149.588 14.3266 150.618 22.1537 149.51 29.8238C148.956 29.02 148.374 28.1824 147.782 27.3357C149.05 19.9743 148.337 12.4079 145.715 5.41318Z" fill="#3F3D56"/>
<path d="M132.06 25.566L132.684 17.6314L133.308 9.69667C133.342 9.26825 133.488 8.85624 133.731 8.50206C133.975 8.14787 134.307 7.86399 134.695 7.67896C135.083 7.49392 135.512 7.41424 135.941 7.44793C136.369 7.48163 136.781 7.6275 137.135 7.87089L143.695 12.3786L148.485 15.6702C148.791 15.3118 149.171 15.024 149.6 14.8266C150.028 14.6293 150.493 14.5271 150.965 14.5271C151.436 14.5271 151.902 14.6293 152.33 14.8266C152.758 15.024 153.138 15.3118 153.445 15.6702L158.235 12.3786L164.794 7.87089C165.148 7.6275 165.56 7.48163 165.989 7.44793C166.417 7.41424 166.847 7.49392 167.235 7.67896C167.623 7.86399 167.955 8.14787 168.198 8.50206C168.442 8.85624 168.588 9.26825 168.621 9.69667L169.245 17.6314L169.869 25.566C169.903 25.9945 169.823 26.4242 169.638 26.8121C169.453 27.1999 169.169 27.5323 168.815 27.7756C168.461 28.019 168.049 28.1649 167.621 28.1986C167.192 28.2323 166.762 28.1526 166.374 27.9675L159.191 24.5405L153.288 21.7247C152.985 22.0325 152.623 22.2768 152.224 22.4436C151.825 22.6103 151.397 22.6962 150.965 22.6962C150.532 22.6962 150.104 22.6103 149.705 22.4436C149.307 22.2768 148.945 22.0325 148.641 21.7247L142.739 24.5405L135.555 27.9676C135.167 28.1526 134.738 28.2323 134.309 28.1986C133.881 28.1649 133.469 28.0191 133.115 27.7757C132.76 27.5323 132.476 27.1999 132.291 26.8121C132.106 26.4242 132.027 25.9945 132.06 25.566Z" fill="#6C63FF"/>
<path d="M156.87 57.14C156.87 57.9554 157.531 57.14 158.346 57.14C159.162 57.14 159.823 57.9554 159.823 57.14C159.822 56.749 159.666 56.3743 159.389 56.0981C159.112 55.8219 158.737 55.6668 158.346 55.6668C157.955 55.6668 157.58 55.8219 157.304 56.0981C157.027 56.3743 156.871 56.749 156.87 57.14Z" fill="#E6E6E6"/>
<path d="M144.075 57.14C144.075 57.9554 143.414 57.14 142.599 57.14C141.784 57.14 141.123 57.9554 141.123 57.14C141.124 56.749 141.279 56.3743 141.556 56.0981C141.833 55.8219 142.208 55.6668 142.599 55.6668C142.99 55.6668 143.365 55.8219 143.642 56.0981C143.919 56.3743 144.075 56.749 144.075 57.14Z" fill="#E6E6E6"/>
<path d="M307.867 168.607V159.223H260.947V159.81V168.607V244.266V253.651H270.331H307.867V244.266H270.331V168.607H307.867Z" fill="#3F3D56"/>
<path d="M330.741 159.223V253.65H377.661V159.223H330.741ZM368.277 244.266H340.125V168.607H368.277V244.266Z" fill="#6C63FF"/>
<path d="M200.537 244.266V159.81H191.153V244.266V253.651H200.537H238.073V244.266H200.537Z" fill="#6C63FF"/>
<path d="M170.039 168.607V159.223H123.119V159.81V168.607V201.451V210.836V244.266V253.651H132.503H170.039V244.266H132.503V210.836H170.039V201.451H132.503V168.607H170.039Z" fill="#3F3D56"/>
<path d="M537.19 168.607V159.223H490.27V159.81V168.607V201.451V210.836V244.266V253.651H499.654H537.19V244.266H499.654V210.836H537.19V201.451H499.654V168.607H537.19Z" fill="#6C63FF"/>
<path d="M91.4476 159.81V237.367L66.7049 212.625L66.6486 212.682L66.5961 212.63L41.3018 237.924V159.517H31.9176V253.358H41.3018V251.195L66.6531 225.844L91.4476 250.639V253.651H100.832V159.81H91.4476Z" fill="#3F3D56"/>
<path d="M459.186 159.81V161.972L433.834 187.323L409.039 162.528V159.517H399.655V253.358H409.039V175.799L433.782 200.542L433.839 200.485L433.891 200.537L459.186 175.242V253.651H468.569V159.81H459.186Z" fill="#3F3D56"/>
<path d="M214.445 102.002C217.626 102.002 220.205 99.4231 220.205 96.2419C220.205 93.0608 217.626 90.482 214.445 90.482C211.264 90.482 208.685 93.0608 208.685 96.2419C208.685 99.4231 211.264 102.002 214.445 102.002Z" fill="#6C63FF"/>
<path d="M72.3673 166.001C75.5484 166.001 78.1272 163.422 78.1272 160.241C78.1272 157.06 75.5484 154.481 72.3673 154.481C69.1862 154.481 66.6074 157.06 66.6074 160.241C66.6074 163.422 69.1862 166.001 72.3673 166.001Z" fill="#6C63FF"/>
<path d="M186.286 294C189.467 294 192.046 291.421 192.046 288.24C192.046 285.059 189.467 282.48 186.286 282.48C183.105 282.48 180.526 285.059 180.526 288.24C180.526 291.421 183.105 294 186.286 294Z" fill="#6C63FF"/>
<path d="M330.923 119.282C334.105 119.282 336.683 116.703 336.683 113.522C336.683 110.341 334.105 107.762 330.923 107.762C327.742 107.762 325.164 110.341 325.164 113.522C325.164 116.703 327.742 119.282 330.923 119.282Z" fill="#6C63FF"/>
<path d="M500.521 288.88C503.702 288.88 506.281 286.301 506.281 283.12C506.281 279.939 503.702 277.36 500.521 277.36C497.34 277.36 494.761 279.939 494.761 283.12C494.761 286.301 497.34 288.88 500.521 288.88Z" fill="#6C63FF"/>
<path d="M506.281 137.842C509.462 137.842 512.041 135.263 512.041 132.082C512.041 128.9 509.462 126.322 506.281 126.322C503.1 126.322 500.521 128.9 500.521 132.082C500.521 135.263 503.1 137.842 506.281 137.842Z" fill="#6C63FF"/>
<path d="M433.322 241.521C436.503 241.521 439.082 238.942 439.082 235.761C439.082 232.579 436.503 230.001 433.322 230.001C430.141 230.001 427.562 232.579 427.562 235.761C427.562 238.942 430.141 241.521 433.322 241.521Z" fill="#6C63FF"/>
</g>
<defs>
<clipPath id="clip0_1_47">
<rect width="569" height="294" fill="white"/>
</clipPath>
</defs>
</svg>
